G04 #@! TF.GenerationSoftware,KiCad,Pcbnew,5.1.5-52549c5~86~ubuntu18.04.1*
G04 #@! TF.CreationDate,2020-05-17T18:14:26-04:00*
G04 #@! TF.ProjectId,ft-891-Audio_Interface,66742d38-3931-42d4-9175-64696f5f496e,rev?*
G04 #@! TF.SameCoordinates,Original*
G04 #@! TF.FileFunction,Copper,L2,Bot*
G04 #@! TF.FilePolarity,Positive*
%FSLAX46Y46*%
G04 Gerber Fmt 4.6, Leading zero omitted, Abs format (unit mm)*
G04 Created by KiCad (PCBNEW 5.1.5-52549c5~86~ubuntu18.04.1) date 2020-05-17 18:14:26*
%MOMM*%
%LPD*%
G04 APERTURE LIST*
%ADD10R,1.700000X1.700000*%
%ADD11O,1.700000X1.700000*%
%ADD12C,2.200000*%
%ADD13C,1.400000*%
%ADD14C,1.620000*%
%ADD15C,0.800000*%
%ADD16C,0.508000*%
%ADD17C,0.254000*%
G04 APERTURE END LIST*
D10*
X149165200Y-101554000D03*
D11*
X151705200Y-101554000D03*
X154245200Y-101554000D03*
D10*
X132219200Y-114920000D03*
D11*
X132219200Y-117460000D03*
X129679200Y-114920000D03*
X129679200Y-117460000D03*
X127139200Y-114920000D03*
X127139200Y-117460000D03*
X124599200Y-114920000D03*
X124599200Y-117460000D03*
D12*
X98669200Y-87551680D03*
X98669200Y-103161680D03*
D13*
X110609200Y-99801680D03*
X108069200Y-98531680D03*
X110609200Y-97261680D03*
X108069200Y-95991680D03*
X110609200Y-94721680D03*
X108069200Y-93451680D03*
X108069200Y-90911680D03*
X110609200Y-92181680D03*
D14*
X120045200Y-102324000D03*
X122545200Y-97324000D03*
X125045200Y-102324000D03*
D10*
X149125200Y-96554000D03*
D11*
X151665200Y-96554000D03*
X154205200Y-96554000D03*
D15*
X123682760Y-111485680D03*
X161782760Y-89641680D03*
X157972760Y-105643680D03*
X100314760Y-114787680D03*
X113522760Y-118089680D03*
X121142760Y-112247680D03*
X138922760Y-107167680D03*
X114538760Y-95991680D03*
X131810760Y-120121680D03*
D16*
X124599200Y-114920000D02*
X124599200Y-112402120D01*
X124599200Y-112402120D02*
X123682760Y-111485680D01*
D17*
X138867520Y-107167680D02*
X138922760Y-107167680D01*
X132219200Y-114920000D02*
X132219200Y-113816000D01*
X132219200Y-113816000D02*
X138867520Y-107167680D01*
X108069200Y-95991680D02*
X114538760Y-95991680D01*
D16*
X131810760Y-117868440D02*
X132219200Y-117460000D01*
X131810760Y-120121680D02*
X131810760Y-117868440D01*
D17*
G36*
X161893305Y-84498589D02*
G01*
X162243968Y-84604460D01*
X162567385Y-84776424D01*
X162851244Y-85007934D01*
X163084725Y-85290166D01*
X163258943Y-85612375D01*
X163367262Y-85962294D01*
X163408761Y-86357132D01*
X163408760Y-119327401D01*
X163369851Y-119724225D01*
X163263980Y-120074886D01*
X163092017Y-120398303D01*
X162860508Y-120682162D01*
X162578274Y-120915645D01*
X162256064Y-121089864D01*
X161906145Y-121198182D01*
X161511317Y-121239680D01*
X96791039Y-121239680D01*
X96394215Y-121200771D01*
X96043554Y-121094900D01*
X95720137Y-120922937D01*
X95436278Y-120691428D01*
X95202795Y-120409194D01*
X95028576Y-120086984D01*
X94920258Y-119737065D01*
X94878760Y-119342237D01*
X94878760Y-118656175D01*
X95281760Y-118656175D01*
X95281760Y-119047185D01*
X95358042Y-119430683D01*
X95507675Y-119791930D01*
X95724909Y-120117044D01*
X96001396Y-120393531D01*
X96326510Y-120610765D01*
X96687757Y-120760398D01*
X97071255Y-120836680D01*
X97462265Y-120836680D01*
X97845763Y-120760398D01*
X98207010Y-120610765D01*
X98532124Y-120393531D01*
X98808611Y-120117044D01*
X99025845Y-119791930D01*
X99175478Y-119430683D01*
X99251760Y-119047185D01*
X99251760Y-118656175D01*
X99175478Y-118272677D01*
X99025845Y-117911430D01*
X98962677Y-117816891D01*
X123157719Y-117816891D01*
X123255043Y-118091252D01*
X123404022Y-118341355D01*
X123598931Y-118557588D01*
X123832280Y-118731641D01*
X124095101Y-118856825D01*
X124242310Y-118901476D01*
X124472200Y-118780155D01*
X124472200Y-117587000D01*
X123278386Y-117587000D01*
X123157719Y-117816891D01*
X98962677Y-117816891D01*
X98808611Y-117586316D01*
X98532124Y-117309829D01*
X98207010Y-117092595D01*
X97845763Y-116942962D01*
X97462265Y-116866680D01*
X97071255Y-116866680D01*
X96687757Y-116942962D01*
X96326510Y-117092595D01*
X96001396Y-117309829D01*
X95724909Y-117586316D01*
X95507675Y-117911430D01*
X95358042Y-118272677D01*
X95281760Y-118656175D01*
X94878760Y-118656175D01*
X94878760Y-110069420D01*
X97984200Y-110069420D01*
X97984200Y-110361940D01*
X98041268Y-110648838D01*
X98153210Y-110919091D01*
X98315725Y-111162312D01*
X98522568Y-111369155D01*
X98765789Y-111531670D01*
X99036042Y-111643612D01*
X99322940Y-111700680D01*
X99615460Y-111700680D01*
X99902358Y-111643612D01*
X100172611Y-111531670D01*
X100415832Y-111369155D01*
X100622675Y-111162312D01*
X100785190Y-110919091D01*
X100897132Y-110648838D01*
X100954200Y-110361940D01*
X100954200Y-110069420D01*
X104984200Y-110069420D01*
X104984200Y-110361940D01*
X105041268Y-110648838D01*
X105153210Y-110919091D01*
X105315725Y-111162312D01*
X105522568Y-111369155D01*
X105765789Y-111531670D01*
X106036042Y-111643612D01*
X106322940Y-111700680D01*
X106615460Y-111700680D01*
X106902358Y-111643612D01*
X107172611Y-111531670D01*
X107394002Y-111383741D01*
X122647760Y-111383741D01*
X122647760Y-111587619D01*
X122687534Y-111787578D01*
X122765555Y-111975936D01*
X122878823Y-112145454D01*
X123022986Y-112289617D01*
X123192504Y-112402885D01*
X123380862Y-112480906D01*
X123430655Y-112490810D01*
X123710201Y-112770357D01*
X123710200Y-113728016D01*
X123652568Y-113766525D01*
X123445725Y-113973368D01*
X123283210Y-114216589D01*
X123171268Y-114486842D01*
X123114200Y-114773740D01*
X123114200Y-115066260D01*
X123171268Y-115353158D01*
X123283210Y-115623411D01*
X123445725Y-115866632D01*
X123652568Y-116073475D01*
X123828606Y-116191100D01*
X123598931Y-116362412D01*
X123404022Y-116578645D01*
X123255043Y-116828748D01*
X123157719Y-117103109D01*
X123278386Y-117333000D01*
X124472200Y-117333000D01*
X124472200Y-117313000D01*
X124726200Y-117313000D01*
X124726200Y-117333000D01*
X124746200Y-117333000D01*
X124746200Y-117587000D01*
X124726200Y-117587000D01*
X124726200Y-118780155D01*
X124956090Y-118901476D01*
X125103299Y-118856825D01*
X125366120Y-118731641D01*
X125599469Y-118557588D01*
X125794378Y-118341355D01*
X125864005Y-118224466D01*
X125985725Y-118406632D01*
X126192568Y-118613475D01*
X126435789Y-118775990D01*
X126706042Y-118887932D01*
X126992940Y-118945000D01*
X127285460Y-118945000D01*
X127572358Y-118887932D01*
X127842611Y-118775990D01*
X128085832Y-118613475D01*
X128292675Y-118406632D01*
X128409200Y-118232240D01*
X128525725Y-118406632D01*
X128732568Y-118613475D01*
X128975789Y-118775990D01*
X129246042Y-118887932D01*
X129532940Y-118945000D01*
X129825460Y-118945000D01*
X130112358Y-118887932D01*
X130382611Y-118775990D01*
X130625832Y-118613475D01*
X130832675Y-118406632D01*
X130921761Y-118273306D01*
X130921760Y-119589212D01*
X130893555Y-119631424D01*
X130815534Y-119819782D01*
X130775760Y-120019741D01*
X130775760Y-120223619D01*
X130815534Y-120423578D01*
X130893555Y-120611936D01*
X131006823Y-120781454D01*
X131150986Y-120925617D01*
X131320504Y-121038885D01*
X131508862Y-121116906D01*
X131708821Y-121156680D01*
X131912699Y-121156680D01*
X132112658Y-121116906D01*
X132301016Y-121038885D01*
X132470534Y-120925617D01*
X132614697Y-120781454D01*
X132727965Y-120611936D01*
X132805986Y-120423578D01*
X132845760Y-120223619D01*
X132845760Y-120019741D01*
X132805986Y-119819782D01*
X132727965Y-119631424D01*
X132699760Y-119589212D01*
X132699760Y-118868298D01*
X132922611Y-118775990D01*
X133101926Y-118656175D01*
X159035760Y-118656175D01*
X159035760Y-119047185D01*
X159112042Y-119430683D01*
X159261675Y-119791930D01*
X159478909Y-120117044D01*
X159755396Y-120393531D01*
X160080510Y-120610765D01*
X160441757Y-120760398D01*
X160825255Y-120836680D01*
X161216265Y-120836680D01*
X161599763Y-120760398D01*
X161961010Y-120610765D01*
X162286124Y-120393531D01*
X162562611Y-120117044D01*
X162779845Y-119791930D01*
X162929478Y-119430683D01*
X163005760Y-119047185D01*
X163005760Y-118656175D01*
X162929478Y-118272677D01*
X162779845Y-117911430D01*
X162562611Y-117586316D01*
X162286124Y-117309829D01*
X161961010Y-117092595D01*
X161599763Y-116942962D01*
X161216265Y-116866680D01*
X160825255Y-116866680D01*
X160441757Y-116942962D01*
X160080510Y-117092595D01*
X159755396Y-117309829D01*
X159478909Y-117586316D01*
X159261675Y-117911430D01*
X159112042Y-118272677D01*
X159035760Y-118656175D01*
X133101926Y-118656175D01*
X133165832Y-118613475D01*
X133372675Y-118406632D01*
X133535190Y-118163411D01*
X133647132Y-117893158D01*
X133704200Y-117606260D01*
X133704200Y-117313740D01*
X133647132Y-117026842D01*
X133535190Y-116756589D01*
X133372675Y-116513368D01*
X133240820Y-116381513D01*
X133313380Y-116359502D01*
X133423694Y-116300537D01*
X133520385Y-116221185D01*
X133599737Y-116124494D01*
X133658702Y-116014180D01*
X133695012Y-115894482D01*
X133707272Y-115770000D01*
X133707272Y-114070000D01*
X133695012Y-113945518D01*
X133658702Y-113825820D01*
X133599737Y-113715506D01*
X133520385Y-113618815D01*
X133505901Y-113606929D01*
X138059410Y-109053420D01*
X150451760Y-109053420D01*
X150451760Y-109345940D01*
X150508828Y-109632838D01*
X150620770Y-109903091D01*
X150783285Y-110146312D01*
X150990128Y-110353155D01*
X151233349Y-110515670D01*
X151503602Y-110627612D01*
X151790500Y-110684680D01*
X152083020Y-110684680D01*
X152369918Y-110627612D01*
X152640171Y-110515670D01*
X152883392Y-110353155D01*
X153090235Y-110146312D01*
X153252750Y-109903091D01*
X153364692Y-109632838D01*
X153421760Y-109345940D01*
X153421760Y-109053420D01*
X157451760Y-109053420D01*
X157451760Y-109345940D01*
X157508828Y-109632838D01*
X157620770Y-109903091D01*
X157783285Y-110146312D01*
X157990128Y-110353155D01*
X158233349Y-110515670D01*
X158503602Y-110627612D01*
X158790500Y-110684680D01*
X159083020Y-110684680D01*
X159369918Y-110627612D01*
X159640171Y-110515670D01*
X159883392Y-110353155D01*
X160090235Y-110146312D01*
X160252750Y-109903091D01*
X160364692Y-109632838D01*
X160421760Y-109345940D01*
X160421760Y-109053420D01*
X160364692Y-108766522D01*
X160252750Y-108496269D01*
X160090235Y-108253048D01*
X159883392Y-108046205D01*
X159640171Y-107883690D01*
X159369918Y-107771748D01*
X159083020Y-107714680D01*
X158790500Y-107714680D01*
X158503602Y-107771748D01*
X158233349Y-107883690D01*
X157990128Y-108046205D01*
X157783285Y-108253048D01*
X157620770Y-108496269D01*
X157508828Y-108766522D01*
X157451760Y-109053420D01*
X153421760Y-109053420D01*
X153364692Y-108766522D01*
X153252750Y-108496269D01*
X153090235Y-108253048D01*
X152883392Y-108046205D01*
X152640171Y-107883690D01*
X152369918Y-107771748D01*
X152083020Y-107714680D01*
X151790500Y-107714680D01*
X151503602Y-107771748D01*
X151233349Y-107883690D01*
X150990128Y-108046205D01*
X150783285Y-108253048D01*
X150620770Y-108496269D01*
X150508828Y-108766522D01*
X150451760Y-109053420D01*
X138059410Y-109053420D01*
X138910151Y-108202680D01*
X139024699Y-108202680D01*
X139224658Y-108162906D01*
X139413016Y-108084885D01*
X139582534Y-107971617D01*
X139726697Y-107827454D01*
X139839965Y-107657936D01*
X139917986Y-107469578D01*
X139957760Y-107269619D01*
X139957760Y-107065741D01*
X139917986Y-106865782D01*
X139839965Y-106677424D01*
X139726697Y-106507906D01*
X139582534Y-106363743D01*
X139413016Y-106250475D01*
X139224658Y-106172454D01*
X139024699Y-106132680D01*
X138820821Y-106132680D01*
X138620862Y-106172454D01*
X138432504Y-106250475D01*
X138262986Y-106363743D01*
X138118823Y-106507906D01*
X138005555Y-106677424D01*
X137927534Y-106865782D01*
X137887760Y-107065741D01*
X137887760Y-107069809D01*
X131706849Y-113250721D01*
X131677779Y-113274578D01*
X131653922Y-113303648D01*
X131653921Y-113303649D01*
X131582555Y-113390608D01*
X131560469Y-113431928D01*
X131369200Y-113431928D01*
X131244718Y-113444188D01*
X131125020Y-113480498D01*
X131014706Y-113539463D01*
X130918015Y-113618815D01*
X130838663Y-113715506D01*
X130779698Y-113825820D01*
X130757687Y-113898380D01*
X130625832Y-113766525D01*
X130382611Y-113604010D01*
X130112358Y-113492068D01*
X129825460Y-113435000D01*
X129532940Y-113435000D01*
X129246042Y-113492068D01*
X128975789Y-113604010D01*
X128732568Y-113766525D01*
X128525725Y-113973368D01*
X128409200Y-114147760D01*
X128292675Y-113973368D01*
X128085832Y-113766525D01*
X127842611Y-113604010D01*
X127572358Y-113492068D01*
X127285460Y-113435000D01*
X126992940Y-113435000D01*
X126706042Y-113492068D01*
X126435789Y-113604010D01*
X126192568Y-113766525D01*
X125985725Y-113973368D01*
X125869200Y-114147760D01*
X125752675Y-113973368D01*
X125545832Y-113766525D01*
X125488200Y-113728017D01*
X125488200Y-112445780D01*
X125492500Y-112402120D01*
X125488200Y-112358460D01*
X125488200Y-112358453D01*
X125475336Y-112227846D01*
X125424503Y-112060269D01*
X125341953Y-111905829D01*
X125230859Y-111770461D01*
X125196941Y-111742625D01*
X124687890Y-111233575D01*
X124677986Y-111183782D01*
X124599965Y-110995424D01*
X124486697Y-110825906D01*
X124342534Y-110681743D01*
X124173016Y-110568475D01*
X123984658Y-110490454D01*
X123784699Y-110450680D01*
X123580821Y-110450680D01*
X123380862Y-110490454D01*
X123192504Y-110568475D01*
X123022986Y-110681743D01*
X122878823Y-110825906D01*
X122765555Y-110995424D01*
X122687534Y-111183782D01*
X122647760Y-111383741D01*
X107394002Y-111383741D01*
X107415832Y-111369155D01*
X107622675Y-111162312D01*
X107785190Y-110919091D01*
X107897132Y-110648838D01*
X107954200Y-110361940D01*
X107954200Y-110069420D01*
X107897132Y-109782522D01*
X107785190Y-109512269D01*
X107622675Y-109269048D01*
X107415832Y-109062205D01*
X107172611Y-108899690D01*
X106902358Y-108787748D01*
X106615460Y-108730680D01*
X106322940Y-108730680D01*
X106036042Y-108787748D01*
X105765789Y-108899690D01*
X105522568Y-109062205D01*
X105315725Y-109269048D01*
X105153210Y-109512269D01*
X105041268Y-109782522D01*
X104984200Y-110069420D01*
X100954200Y-110069420D01*
X100897132Y-109782522D01*
X100785190Y-109512269D01*
X100622675Y-109269048D01*
X100415832Y-109062205D01*
X100172611Y-108899690D01*
X99902358Y-108787748D01*
X99615460Y-108730680D01*
X99322940Y-108730680D01*
X99036042Y-108787748D01*
X98765789Y-108899690D01*
X98522568Y-109062205D01*
X98315725Y-109269048D01*
X98153210Y-109512269D01*
X98041268Y-109782522D01*
X97984200Y-110069420D01*
X94878760Y-110069420D01*
X94878760Y-104368392D01*
X97642093Y-104368392D01*
X97749926Y-104643018D01*
X98056584Y-104793896D01*
X98386785Y-104882049D01*
X98727839Y-104904089D01*
X99066639Y-104859169D01*
X99390166Y-104749016D01*
X99588474Y-104643018D01*
X99696307Y-104368392D01*
X98669200Y-103341285D01*
X97642093Y-104368392D01*
X94878760Y-104368392D01*
X94878760Y-103220319D01*
X96926791Y-103220319D01*
X96971711Y-103559119D01*
X97081864Y-103882646D01*
X97187862Y-104080954D01*
X97462488Y-104188787D01*
X98489595Y-103161680D01*
X97462488Y-102134573D01*
X97187862Y-102242406D01*
X97036984Y-102549064D01*
X96948831Y-102879265D01*
X96926791Y-103220319D01*
X94878760Y-103220319D01*
X94878760Y-101954968D01*
X97642093Y-101954968D01*
X98669200Y-102982075D01*
X98683343Y-102967933D01*
X98862948Y-103147538D01*
X98848805Y-103161680D01*
X99875912Y-104188787D01*
X100150538Y-104080954D01*
X100301416Y-103774296D01*
X100389569Y-103444095D01*
X100411609Y-103103041D01*
X100384407Y-102897878D01*
X100648689Y-103074466D01*
X101059982Y-103244829D01*
X101496609Y-103331680D01*
X101941791Y-103331680D01*
X101981190Y-103323843D01*
X119224962Y-103323843D01*
X119297756Y-103568832D01*
X119554973Y-103690733D01*
X119831029Y-103760110D01*
X120115315Y-103774298D01*
X120396906Y-103732752D01*
X120664983Y-103637068D01*
X120792644Y-103568832D01*
X120865438Y-103323843D01*
X120045200Y-102503605D01*
X119224962Y-103323843D01*
X101981190Y-103323843D01*
X102378418Y-103244829D01*
X102789711Y-103074466D01*
X103159866Y-102827136D01*
X103474656Y-102512346D01*
X103553655Y-102394115D01*
X118594902Y-102394115D01*
X118636448Y-102675706D01*
X118732132Y-102943783D01*
X118800368Y-103071444D01*
X119045357Y-103144238D01*
X119865595Y-102324000D01*
X120224805Y-102324000D01*
X121045043Y-103144238D01*
X121290032Y-103071444D01*
X121411933Y-102814227D01*
X121481310Y-102538171D01*
X121495498Y-102253885D01*
X121484845Y-102181680D01*
X123600200Y-102181680D01*
X123600200Y-102466320D01*
X123655730Y-102745491D01*
X123764657Y-103008464D01*
X123922795Y-103245134D01*
X124124066Y-103446405D01*
X124360736Y-103604543D01*
X124623709Y-103713470D01*
X124902880Y-103769000D01*
X125187520Y-103769000D01*
X125466691Y-103713470D01*
X125729664Y-103604543D01*
X125966334Y-103446405D01*
X126167605Y-103245134D01*
X126325743Y-103008464D01*
X126434670Y-102745491D01*
X126490200Y-102466320D01*
X126490200Y-102181680D01*
X126434670Y-101902509D01*
X126325743Y-101639536D01*
X126167605Y-101402866D01*
X125966334Y-101201595D01*
X125729664Y-101043457D01*
X125466691Y-100934530D01*
X125187520Y-100879000D01*
X124902880Y-100879000D01*
X124623709Y-100934530D01*
X124360736Y-101043457D01*
X124124066Y-101201595D01*
X123922795Y-101402866D01*
X123764657Y-101639536D01*
X123655730Y-101902509D01*
X123600200Y-102181680D01*
X121484845Y-102181680D01*
X121453952Y-101972294D01*
X121358268Y-101704217D01*
X121290032Y-101576556D01*
X121045043Y-101503762D01*
X120224805Y-102324000D01*
X119865595Y-102324000D01*
X119045357Y-101503762D01*
X118800368Y-101576556D01*
X118678467Y-101833773D01*
X118609090Y-102109829D01*
X118594902Y-102394115D01*
X103553655Y-102394115D01*
X103721986Y-102142191D01*
X103892349Y-101730898D01*
X103973255Y-101324157D01*
X119224962Y-101324157D01*
X120045200Y-102144395D01*
X120865438Y-101324157D01*
X120792644Y-101079168D01*
X120535427Y-100957267D01*
X120259371Y-100887890D01*
X119975085Y-100873702D01*
X119693494Y-100915248D01*
X119425417Y-101010932D01*
X119297756Y-101079168D01*
X119224962Y-101324157D01*
X103973255Y-101324157D01*
X103979200Y-101294271D01*
X103979200Y-100849089D01*
X103892349Y-100412462D01*
X103721986Y-100001169D01*
X103474656Y-99631014D01*
X103296591Y-99452949D01*
X107327536Y-99452949D01*
X107386997Y-99686717D01*
X107625442Y-99797614D01*
X107880940Y-99859863D01*
X108143673Y-99871070D01*
X108403544Y-99830805D01*
X108650566Y-99740615D01*
X108751403Y-99686717D01*
X108810864Y-99452949D01*
X108069200Y-98711285D01*
X107327536Y-99452949D01*
X103296591Y-99452949D01*
X103159866Y-99316224D01*
X102789711Y-99068894D01*
X102378418Y-98898531D01*
X101941791Y-98811680D01*
X101496609Y-98811680D01*
X101059982Y-98898531D01*
X100648689Y-99068894D01*
X100278534Y-99316224D01*
X99963744Y-99631014D01*
X99716414Y-100001169D01*
X99546051Y-100412462D01*
X99459200Y-100849089D01*
X99459200Y-101294271D01*
X99530302Y-101651721D01*
X99281816Y-101529464D01*
X98951615Y-101441311D01*
X98610561Y-101419271D01*
X98271761Y-101464191D01*
X97948234Y-101574344D01*
X97749926Y-101680342D01*
X97642093Y-101954968D01*
X94878760Y-101954968D01*
X94878760Y-98606153D01*
X106729810Y-98606153D01*
X106770075Y-98866024D01*
X106860265Y-99113046D01*
X106914163Y-99213883D01*
X107147931Y-99273344D01*
X107889595Y-98531680D01*
X108248805Y-98531680D01*
X108990469Y-99273344D01*
X109224237Y-99213883D01*
X109335134Y-98975438D01*
X109397383Y-98719940D01*
X109408590Y-98457207D01*
X109368325Y-98197336D01*
X109278135Y-97950314D01*
X109224237Y-97849477D01*
X108990469Y-97790016D01*
X108248805Y-98531680D01*
X107889595Y-98531680D01*
X107147931Y-97790016D01*
X106914163Y-97849477D01*
X106803266Y-98087922D01*
X106741017Y-98343420D01*
X106729810Y-98606153D01*
X94878760Y-98606153D01*
X94878760Y-88758392D01*
X97642093Y-88758392D01*
X97749926Y-89033018D01*
X98056584Y-89183896D01*
X98386785Y-89272049D01*
X98727839Y-89294089D01*
X99066639Y-89249169D01*
X99390166Y-89139016D01*
X99529751Y-89064406D01*
X99459200Y-89419089D01*
X99459200Y-89864271D01*
X99546051Y-90300898D01*
X99716414Y-90712191D01*
X99963744Y-91082346D01*
X100278534Y-91397136D01*
X100648689Y-91644466D01*
X101059982Y-91814829D01*
X101496609Y-91901680D01*
X101941791Y-91901680D01*
X102378418Y-91814829D01*
X102789711Y-91644466D01*
X103159866Y-91397136D01*
X103474656Y-91082346D01*
X103676547Y-90780194D01*
X106734200Y-90780194D01*
X106734200Y-91043166D01*
X106785504Y-91301085D01*
X106886139Y-91544039D01*
X107032238Y-91762693D01*
X107218187Y-91948642D01*
X107436841Y-92094741D01*
X107646730Y-92181680D01*
X107436841Y-92268619D01*
X107218187Y-92414718D01*
X107032238Y-92600667D01*
X106886139Y-92819321D01*
X106785504Y-93062275D01*
X106734200Y-93320194D01*
X106734200Y-93583166D01*
X106785504Y-93841085D01*
X106886139Y-94084039D01*
X107032238Y-94302693D01*
X107218187Y-94488642D01*
X107436841Y-94634741D01*
X107646730Y-94721680D01*
X107436841Y-94808619D01*
X107218187Y-94954718D01*
X107032238Y-95140667D01*
X106886139Y-95359321D01*
X106785504Y-95602275D01*
X106734200Y-95860194D01*
X106734200Y-96123166D01*
X106785504Y-96381085D01*
X106886139Y-96624039D01*
X107032238Y-96842693D01*
X107218187Y-97028642D01*
X107436841Y-97174741D01*
X107650644Y-97263301D01*
X107487834Y-97322745D01*
X107386997Y-97376643D01*
X107327536Y-97610411D01*
X108069200Y-98352075D01*
X108810864Y-97610411D01*
X108751403Y-97376643D01*
X108512958Y-97265746D01*
X108493373Y-97260974D01*
X108701559Y-97174741D01*
X108920213Y-97028642D01*
X109106162Y-96842693D01*
X109165638Y-96753680D01*
X109374628Y-96753680D01*
X109325504Y-96872275D01*
X109274200Y-97130194D01*
X109274200Y-97393166D01*
X109325504Y-97651085D01*
X109426139Y-97894039D01*
X109572238Y-98112693D01*
X109758187Y-98298642D01*
X109976841Y-98444741D01*
X110186730Y-98531680D01*
X109976841Y-98618619D01*
X109758187Y-98764718D01*
X109572238Y-98950667D01*
X109426139Y-99169321D01*
X109325504Y-99412275D01*
X109274200Y-99670194D01*
X109274200Y-99933166D01*
X109325504Y-100191085D01*
X109426139Y-100434039D01*
X109572238Y-100652693D01*
X109758187Y-100838642D01*
X109976841Y-100984741D01*
X110219795Y-101085376D01*
X110477714Y-101136680D01*
X110740686Y-101136680D01*
X110998605Y-101085376D01*
X111241559Y-100984741D01*
X111460213Y-100838642D01*
X111594855Y-100704000D01*
X147677128Y-100704000D01*
X147677128Y-102404000D01*
X147689388Y-102528482D01*
X147725698Y-102648180D01*
X147784663Y-102758494D01*
X147864015Y-102855185D01*
X147960706Y-102934537D01*
X148071020Y-102993502D01*
X148190718Y-103029812D01*
X148315200Y-103042072D01*
X150015200Y-103042072D01*
X150139682Y-103029812D01*
X150259380Y-102993502D01*
X150369694Y-102934537D01*
X150466385Y-102855185D01*
X150545737Y-102758494D01*
X150604702Y-102648180D01*
X150626713Y-102575620D01*
X150758568Y-102707475D01*
X151001789Y-102869990D01*
X151272042Y-102981932D01*
X151558940Y-103039000D01*
X151851460Y-103039000D01*
X152138358Y-102981932D01*
X152408611Y-102869990D01*
X152651832Y-102707475D01*
X152858675Y-102500632D01*
X152980395Y-102318466D01*
X153050022Y-102435355D01*
X153244931Y-102651588D01*
X153478280Y-102825641D01*
X153741101Y-102950825D01*
X153888310Y-102995476D01*
X154118200Y-102874155D01*
X154118200Y-101681000D01*
X154372200Y-101681000D01*
X154372200Y-102874155D01*
X154602090Y-102995476D01*
X154749299Y-102950825D01*
X155012120Y-102825641D01*
X155245469Y-102651588D01*
X155440378Y-102435355D01*
X155589357Y-102185252D01*
X155686681Y-101910891D01*
X155566014Y-101681000D01*
X154372200Y-101681000D01*
X154118200Y-101681000D01*
X154098200Y-101681000D01*
X154098200Y-101427000D01*
X154118200Y-101427000D01*
X154118200Y-100233845D01*
X154372200Y-100233845D01*
X154372200Y-101427000D01*
X155566014Y-101427000D01*
X155686681Y-101197109D01*
X155589357Y-100922748D01*
X155440378Y-100672645D01*
X155245469Y-100456412D01*
X155012120Y-100282359D01*
X154749299Y-100157175D01*
X154602090Y-100112524D01*
X154372200Y-100233845D01*
X154118200Y-100233845D01*
X153888310Y-100112524D01*
X153741101Y-100157175D01*
X153478280Y-100282359D01*
X153244931Y-100456412D01*
X153050022Y-100672645D01*
X152980395Y-100789534D01*
X152858675Y-100607368D01*
X152651832Y-100400525D01*
X152408611Y-100238010D01*
X152138358Y-100126068D01*
X151851460Y-100069000D01*
X151558940Y-100069000D01*
X151272042Y-100126068D01*
X151001789Y-100238010D01*
X150758568Y-100400525D01*
X150626713Y-100532380D01*
X150604702Y-100459820D01*
X150545737Y-100349506D01*
X150466385Y-100252815D01*
X150369694Y-100173463D01*
X150259380Y-100114498D01*
X150139682Y-100078188D01*
X150015200Y-100065928D01*
X148315200Y-100065928D01*
X148190718Y-100078188D01*
X148071020Y-100114498D01*
X147960706Y-100173463D01*
X147864015Y-100252815D01*
X147784663Y-100349506D01*
X147725698Y-100459820D01*
X147689388Y-100579518D01*
X147677128Y-100704000D01*
X111594855Y-100704000D01*
X111646162Y-100652693D01*
X111792261Y-100434039D01*
X111892896Y-100191085D01*
X111944200Y-99933166D01*
X111944200Y-99670194D01*
X111892896Y-99412275D01*
X111792261Y-99169321D01*
X111646162Y-98950667D01*
X111460213Y-98764718D01*
X111241559Y-98618619D01*
X111031670Y-98531680D01*
X111241559Y-98444741D01*
X111460213Y-98298642D01*
X111646162Y-98112693D01*
X111792261Y-97894039D01*
X111892896Y-97651085D01*
X111944200Y-97393166D01*
X111944200Y-97181680D01*
X121100200Y-97181680D01*
X121100200Y-97466320D01*
X121155730Y-97745491D01*
X121264657Y-98008464D01*
X121422795Y-98245134D01*
X121624066Y-98446405D01*
X121860736Y-98604543D01*
X122123709Y-98713470D01*
X122402880Y-98769000D01*
X122687520Y-98769000D01*
X122966691Y-98713470D01*
X123229664Y-98604543D01*
X123466334Y-98446405D01*
X123667605Y-98245134D01*
X123825743Y-98008464D01*
X123934670Y-97745491D01*
X123990200Y-97466320D01*
X123990200Y-97181680D01*
X123934670Y-96902509D01*
X123825743Y-96639536D01*
X123667605Y-96402866D01*
X123466334Y-96201595D01*
X123229664Y-96043457D01*
X122966691Y-95934530D01*
X122687520Y-95879000D01*
X122402880Y-95879000D01*
X122123709Y-95934530D01*
X121860736Y-96043457D01*
X121624066Y-96201595D01*
X121422795Y-96402866D01*
X121264657Y-96639536D01*
X121155730Y-96902509D01*
X121100200Y-97181680D01*
X111944200Y-97181680D01*
X111944200Y-97130194D01*
X111892896Y-96872275D01*
X111843772Y-96753680D01*
X113837049Y-96753680D01*
X113878986Y-96795617D01*
X114048504Y-96908885D01*
X114236862Y-96986906D01*
X114436821Y-97026680D01*
X114640699Y-97026680D01*
X114840658Y-96986906D01*
X115029016Y-96908885D01*
X115198534Y-96795617D01*
X115342697Y-96651454D01*
X115455965Y-96481936D01*
X115533986Y-96293578D01*
X115573760Y-96093619D01*
X115573760Y-95889741D01*
X115536815Y-95704000D01*
X147637128Y-95704000D01*
X147637128Y-97404000D01*
X147649388Y-97528482D01*
X147685698Y-97648180D01*
X147744663Y-97758494D01*
X147824015Y-97855185D01*
X147920706Y-97934537D01*
X148031020Y-97993502D01*
X148150718Y-98029812D01*
X148275200Y-98042072D01*
X149975200Y-98042072D01*
X150099682Y-98029812D01*
X150219380Y-97993502D01*
X150329694Y-97934537D01*
X150426385Y-97855185D01*
X150505737Y-97758494D01*
X150564702Y-97648180D01*
X150586713Y-97575620D01*
X150718568Y-97707475D01*
X150961789Y-97869990D01*
X151232042Y-97981932D01*
X151518940Y-98039000D01*
X151811460Y-98039000D01*
X152098358Y-97981932D01*
X152368611Y-97869990D01*
X152611832Y-97707475D01*
X152818675Y-97500632D01*
X152940395Y-97318466D01*
X153010022Y-97435355D01*
X153204931Y-97651588D01*
X153438280Y-97825641D01*
X153701101Y-97950825D01*
X153848310Y-97995476D01*
X154078200Y-97874155D01*
X154078200Y-96681000D01*
X154332200Y-96681000D01*
X154332200Y-97874155D01*
X154562090Y-97995476D01*
X154709299Y-97950825D01*
X154972120Y-97825641D01*
X155205469Y-97651588D01*
X155400378Y-97435355D01*
X155549357Y-97185252D01*
X155646681Y-96910891D01*
X155526014Y-96681000D01*
X154332200Y-96681000D01*
X154078200Y-96681000D01*
X154058200Y-96681000D01*
X154058200Y-96427000D01*
X154078200Y-96427000D01*
X154078200Y-95233845D01*
X154332200Y-95233845D01*
X154332200Y-96427000D01*
X155526014Y-96427000D01*
X155646681Y-96197109D01*
X155549357Y-95922748D01*
X155400378Y-95672645D01*
X155205469Y-95456412D01*
X154972120Y-95282359D01*
X154709299Y-95157175D01*
X154562090Y-95112524D01*
X154332200Y-95233845D01*
X154078200Y-95233845D01*
X153848310Y-95112524D01*
X153701101Y-95157175D01*
X153438280Y-95282359D01*
X153204931Y-95456412D01*
X153010022Y-95672645D01*
X152940395Y-95789534D01*
X152818675Y-95607368D01*
X152611832Y-95400525D01*
X152368611Y-95238010D01*
X152098358Y-95126068D01*
X151811460Y-95069000D01*
X151518940Y-95069000D01*
X151232042Y-95126068D01*
X150961789Y-95238010D01*
X150718568Y-95400525D01*
X150586713Y-95532380D01*
X150564702Y-95459820D01*
X150505737Y-95349506D01*
X150426385Y-95252815D01*
X150329694Y-95173463D01*
X150219380Y-95114498D01*
X150099682Y-95078188D01*
X149975200Y-95065928D01*
X148275200Y-95065928D01*
X148150718Y-95078188D01*
X148031020Y-95114498D01*
X147920706Y-95173463D01*
X147824015Y-95252815D01*
X147744663Y-95349506D01*
X147685698Y-95459820D01*
X147649388Y-95579518D01*
X147637128Y-95704000D01*
X115536815Y-95704000D01*
X115533986Y-95689782D01*
X115455965Y-95501424D01*
X115342697Y-95331906D01*
X115198534Y-95187743D01*
X115029016Y-95074475D01*
X114840658Y-94996454D01*
X114640699Y-94956680D01*
X114436821Y-94956680D01*
X114236862Y-94996454D01*
X114048504Y-95074475D01*
X113878986Y-95187743D01*
X113837049Y-95229680D01*
X111845256Y-95229680D01*
X111875134Y-95165438D01*
X111937383Y-94909940D01*
X111948590Y-94647207D01*
X111908325Y-94387336D01*
X111818135Y-94140314D01*
X111764237Y-94039477D01*
X111530469Y-93980016D01*
X110788805Y-94721680D01*
X110802948Y-94735823D01*
X110623343Y-94915428D01*
X110609200Y-94901285D01*
X110595058Y-94915428D01*
X110415453Y-94735823D01*
X110429595Y-94721680D01*
X109687931Y-93980016D01*
X109454163Y-94039477D01*
X109343266Y-94277922D01*
X109281017Y-94533420D01*
X109269810Y-94796153D01*
X109310075Y-95056024D01*
X109373478Y-95229680D01*
X109165638Y-95229680D01*
X109106162Y-95140667D01*
X108920213Y-94954718D01*
X108701559Y-94808619D01*
X108491670Y-94721680D01*
X108701559Y-94634741D01*
X108920213Y-94488642D01*
X109106162Y-94302693D01*
X109252261Y-94084039D01*
X109352896Y-93841085D01*
X109404200Y-93583166D01*
X109404200Y-93320194D01*
X109352896Y-93062275D01*
X109252261Y-92819321D01*
X109106162Y-92600667D01*
X108920213Y-92414718D01*
X108701559Y-92268619D01*
X108491670Y-92181680D01*
X108701559Y-92094741D01*
X108768228Y-92050194D01*
X109274200Y-92050194D01*
X109274200Y-92313166D01*
X109325504Y-92571085D01*
X109426139Y-92814039D01*
X109572238Y-93032693D01*
X109758187Y-93218642D01*
X109976841Y-93364741D01*
X110190644Y-93453301D01*
X110027834Y-93512745D01*
X109926997Y-93566643D01*
X109867536Y-93800411D01*
X110609200Y-94542075D01*
X111350864Y-93800411D01*
X111291403Y-93566643D01*
X111052958Y-93455746D01*
X111033373Y-93450974D01*
X111241559Y-93364741D01*
X111460213Y-93218642D01*
X111646162Y-93032693D01*
X111792261Y-92814039D01*
X111892896Y-92571085D01*
X111944200Y-92313166D01*
X111944200Y-92050194D01*
X111892896Y-91792275D01*
X111792261Y-91549321D01*
X111646162Y-91330667D01*
X111460213Y-91144718D01*
X111241559Y-90998619D01*
X110998605Y-90897984D01*
X110740686Y-90846680D01*
X110477714Y-90846680D01*
X110219795Y-90897984D01*
X109976841Y-90998619D01*
X109758187Y-91144718D01*
X109572238Y-91330667D01*
X109426139Y-91549321D01*
X109325504Y-91792275D01*
X109274200Y-92050194D01*
X108768228Y-92050194D01*
X108920213Y-91948642D01*
X109106162Y-91762693D01*
X109252261Y-91544039D01*
X109352896Y-91301085D01*
X109404200Y-91043166D01*
X109404200Y-90780194D01*
X109352896Y-90522275D01*
X109305454Y-90407740D01*
X150451760Y-90407740D01*
X150451760Y-90700260D01*
X150508828Y-90987158D01*
X150620770Y-91257411D01*
X150783285Y-91500632D01*
X150990128Y-91707475D01*
X151233349Y-91869990D01*
X151503602Y-91981932D01*
X151790500Y-92039000D01*
X152083020Y-92039000D01*
X152369918Y-91981932D01*
X152640171Y-91869990D01*
X152883392Y-91707475D01*
X153090235Y-91500632D01*
X153252750Y-91257411D01*
X153364692Y-90987158D01*
X153421760Y-90700260D01*
X153421760Y-90407740D01*
X157451760Y-90407740D01*
X157451760Y-90700260D01*
X157508828Y-90987158D01*
X157620770Y-91257411D01*
X157783285Y-91500632D01*
X157990128Y-91707475D01*
X158233349Y-91869990D01*
X158503602Y-91981932D01*
X158790500Y-92039000D01*
X159083020Y-92039000D01*
X159369918Y-91981932D01*
X159640171Y-91869990D01*
X159883392Y-91707475D01*
X160090235Y-91500632D01*
X160252750Y-91257411D01*
X160364692Y-90987158D01*
X160421760Y-90700260D01*
X160421760Y-90407740D01*
X160364692Y-90120842D01*
X160252750Y-89850589D01*
X160090235Y-89607368D01*
X159883392Y-89400525D01*
X159640171Y-89238010D01*
X159369918Y-89126068D01*
X159083020Y-89069000D01*
X158790500Y-89069000D01*
X158503602Y-89126068D01*
X158233349Y-89238010D01*
X157990128Y-89400525D01*
X157783285Y-89607368D01*
X157620770Y-89850589D01*
X157508828Y-90120842D01*
X157451760Y-90407740D01*
X153421760Y-90407740D01*
X153364692Y-90120842D01*
X153252750Y-89850589D01*
X153090235Y-89607368D01*
X152883392Y-89400525D01*
X152640171Y-89238010D01*
X152369918Y-89126068D01*
X152083020Y-89069000D01*
X151790500Y-89069000D01*
X151503602Y-89126068D01*
X151233349Y-89238010D01*
X150990128Y-89400525D01*
X150783285Y-89607368D01*
X150620770Y-89850589D01*
X150508828Y-90120842D01*
X150451760Y-90407740D01*
X109305454Y-90407740D01*
X109252261Y-90279321D01*
X109106162Y-90060667D01*
X108920213Y-89874718D01*
X108701559Y-89728619D01*
X108458605Y-89627984D01*
X108200686Y-89576680D01*
X107937714Y-89576680D01*
X107679795Y-89627984D01*
X107436841Y-89728619D01*
X107218187Y-89874718D01*
X107032238Y-90060667D01*
X106886139Y-90279321D01*
X106785504Y-90522275D01*
X106734200Y-90780194D01*
X103676547Y-90780194D01*
X103721986Y-90712191D01*
X103892349Y-90300898D01*
X103979200Y-89864271D01*
X103979200Y-89419089D01*
X103892349Y-88982462D01*
X103721986Y-88571169D01*
X103474656Y-88201014D01*
X103159866Y-87886224D01*
X102789711Y-87638894D01*
X102378418Y-87468531D01*
X101941791Y-87381680D01*
X101496609Y-87381680D01*
X101059982Y-87468531D01*
X100648689Y-87638894D01*
X100391059Y-87811037D01*
X100411609Y-87493041D01*
X100366689Y-87154241D01*
X100256536Y-86830714D01*
X100150538Y-86632406D01*
X99875912Y-86524573D01*
X98848805Y-87551680D01*
X98862948Y-87565823D01*
X98683343Y-87745428D01*
X98669200Y-87731285D01*
X97642093Y-88758392D01*
X94878760Y-88758392D01*
X94878760Y-87610319D01*
X96926791Y-87610319D01*
X96971711Y-87949119D01*
X97081864Y-88272646D01*
X97187862Y-88470954D01*
X97462488Y-88578787D01*
X98489595Y-87551680D01*
X97462488Y-86524573D01*
X97187862Y-86632406D01*
X97036984Y-86939064D01*
X96948831Y-87269265D01*
X96926791Y-87610319D01*
X94878760Y-87610319D01*
X94878760Y-86371959D01*
X94881406Y-86344968D01*
X97642093Y-86344968D01*
X98669200Y-87372075D01*
X99696307Y-86344968D01*
X99588474Y-86070342D01*
X99281816Y-85919464D01*
X98951615Y-85831311D01*
X98610561Y-85809271D01*
X98271761Y-85854191D01*
X97948234Y-85964344D01*
X97749926Y-86070342D01*
X97642093Y-86344968D01*
X94881406Y-86344968D01*
X94917669Y-85975135D01*
X95023540Y-85624472D01*
X95195504Y-85301055D01*
X95427014Y-85017196D01*
X95709246Y-84783715D01*
X96031455Y-84609497D01*
X96381374Y-84501178D01*
X96776203Y-84459680D01*
X161496481Y-84459680D01*
X161893305Y-84498589D01*
G37*
X161893305Y-84498589D02*
X162243968Y-84604460D01*
X162567385Y-84776424D01*
X162851244Y-85007934D01*
X163084725Y-85290166D01*
X163258943Y-85612375D01*
X163367262Y-85962294D01*
X163408761Y-86357132D01*
X163408760Y-119327401D01*
X163369851Y-119724225D01*
X163263980Y-120074886D01*
X163092017Y-120398303D01*
X162860508Y-120682162D01*
X162578274Y-120915645D01*
X162256064Y-121089864D01*
X161906145Y-121198182D01*
X161511317Y-121239680D01*
X96791039Y-121239680D01*
X96394215Y-121200771D01*
X96043554Y-121094900D01*
X95720137Y-120922937D01*
X95436278Y-120691428D01*
X95202795Y-120409194D01*
X95028576Y-120086984D01*
X94920258Y-119737065D01*
X94878760Y-119342237D01*
X94878760Y-118656175D01*
X95281760Y-118656175D01*
X95281760Y-119047185D01*
X95358042Y-119430683D01*
X95507675Y-119791930D01*
X95724909Y-120117044D01*
X96001396Y-120393531D01*
X96326510Y-120610765D01*
X96687757Y-120760398D01*
X97071255Y-120836680D01*
X97462265Y-120836680D01*
X97845763Y-120760398D01*
X98207010Y-120610765D01*
X98532124Y-120393531D01*
X98808611Y-120117044D01*
X99025845Y-119791930D01*
X99175478Y-119430683D01*
X99251760Y-119047185D01*
X99251760Y-118656175D01*
X99175478Y-118272677D01*
X99025845Y-117911430D01*
X98962677Y-117816891D01*
X123157719Y-117816891D01*
X123255043Y-118091252D01*
X123404022Y-118341355D01*
X123598931Y-118557588D01*
X123832280Y-118731641D01*
X124095101Y-118856825D01*
X124242310Y-118901476D01*
X124472200Y-118780155D01*
X124472200Y-117587000D01*
X123278386Y-117587000D01*
X123157719Y-117816891D01*
X98962677Y-117816891D01*
X98808611Y-117586316D01*
X98532124Y-117309829D01*
X98207010Y-117092595D01*
X97845763Y-116942962D01*
X97462265Y-116866680D01*
X97071255Y-116866680D01*
X96687757Y-116942962D01*
X96326510Y-117092595D01*
X96001396Y-117309829D01*
X95724909Y-117586316D01*
X95507675Y-117911430D01*
X95358042Y-118272677D01*
X95281760Y-118656175D01*
X94878760Y-118656175D01*
X94878760Y-110069420D01*
X97984200Y-110069420D01*
X97984200Y-110361940D01*
X98041268Y-110648838D01*
X98153210Y-110919091D01*
X98315725Y-111162312D01*
X98522568Y-111369155D01*
X98765789Y-111531670D01*
X99036042Y-111643612D01*
X99322940Y-111700680D01*
X99615460Y-111700680D01*
X99902358Y-111643612D01*
X100172611Y-111531670D01*
X100415832Y-111369155D01*
X100622675Y-111162312D01*
X100785190Y-110919091D01*
X100897132Y-110648838D01*
X100954200Y-110361940D01*
X100954200Y-110069420D01*
X104984200Y-110069420D01*
X104984200Y-110361940D01*
X105041268Y-110648838D01*
X105153210Y-110919091D01*
X105315725Y-111162312D01*
X105522568Y-111369155D01*
X105765789Y-111531670D01*
X106036042Y-111643612D01*
X106322940Y-111700680D01*
X106615460Y-111700680D01*
X106902358Y-111643612D01*
X107172611Y-111531670D01*
X107394002Y-111383741D01*
X122647760Y-111383741D01*
X122647760Y-111587619D01*
X122687534Y-111787578D01*
X122765555Y-111975936D01*
X122878823Y-112145454D01*
X123022986Y-112289617D01*
X123192504Y-112402885D01*
X123380862Y-112480906D01*
X123430655Y-112490810D01*
X123710201Y-112770357D01*
X123710200Y-113728016D01*
X123652568Y-113766525D01*
X123445725Y-113973368D01*
X123283210Y-114216589D01*
X123171268Y-114486842D01*
X123114200Y-114773740D01*
X123114200Y-115066260D01*
X123171268Y-115353158D01*
X123283210Y-115623411D01*
X123445725Y-115866632D01*
X123652568Y-116073475D01*
X123828606Y-116191100D01*
X123598931Y-116362412D01*
X123404022Y-116578645D01*
X123255043Y-116828748D01*
X123157719Y-117103109D01*
X123278386Y-117333000D01*
X124472200Y-117333000D01*
X124472200Y-117313000D01*
X124726200Y-117313000D01*
X124726200Y-117333000D01*
X124746200Y-117333000D01*
X124746200Y-117587000D01*
X124726200Y-117587000D01*
X124726200Y-118780155D01*
X124956090Y-118901476D01*
X125103299Y-118856825D01*
X125366120Y-118731641D01*
X125599469Y-118557588D01*
X125794378Y-118341355D01*
X125864005Y-118224466D01*
X125985725Y-118406632D01*
X126192568Y-118613475D01*
X126435789Y-118775990D01*
X126706042Y-118887932D01*
X126992940Y-118945000D01*
X127285460Y-118945000D01*
X127572358Y-118887932D01*
X127842611Y-118775990D01*
X128085832Y-118613475D01*
X128292675Y-118406632D01*
X128409200Y-118232240D01*
X128525725Y-118406632D01*
X128732568Y-118613475D01*
X128975789Y-118775990D01*
X129246042Y-118887932D01*
X129532940Y-118945000D01*
X129825460Y-118945000D01*
X130112358Y-118887932D01*
X130382611Y-118775990D01*
X130625832Y-118613475D01*
X130832675Y-118406632D01*
X130921761Y-118273306D01*
X130921760Y-119589212D01*
X130893555Y-119631424D01*
X130815534Y-119819782D01*
X130775760Y-120019741D01*
X130775760Y-120223619D01*
X130815534Y-120423578D01*
X130893555Y-120611936D01*
X131006823Y-120781454D01*
X131150986Y-120925617D01*
X131320504Y-121038885D01*
X131508862Y-121116906D01*
X131708821Y-121156680D01*
X131912699Y-121156680D01*
X132112658Y-121116906D01*
X132301016Y-121038885D01*
X132470534Y-120925617D01*
X132614697Y-120781454D01*
X132727965Y-120611936D01*
X132805986Y-120423578D01*
X132845760Y-120223619D01*
X132845760Y-120019741D01*
X132805986Y-119819782D01*
X132727965Y-119631424D01*
X132699760Y-119589212D01*
X132699760Y-118868298D01*
X132922611Y-118775990D01*
X133101926Y-118656175D01*
X159035760Y-118656175D01*
X159035760Y-119047185D01*
X159112042Y-119430683D01*
X159261675Y-119791930D01*
X159478909Y-120117044D01*
X159755396Y-120393531D01*
X160080510Y-120610765D01*
X160441757Y-120760398D01*
X160825255Y-120836680D01*
X161216265Y-120836680D01*
X161599763Y-120760398D01*
X161961010Y-120610765D01*
X162286124Y-120393531D01*
X162562611Y-120117044D01*
X162779845Y-119791930D01*
X162929478Y-119430683D01*
X163005760Y-119047185D01*
X163005760Y-118656175D01*
X162929478Y-118272677D01*
X162779845Y-117911430D01*
X162562611Y-117586316D01*
X162286124Y-117309829D01*
X161961010Y-117092595D01*
X161599763Y-116942962D01*
X161216265Y-116866680D01*
X160825255Y-116866680D01*
X160441757Y-116942962D01*
X160080510Y-117092595D01*
X159755396Y-117309829D01*
X159478909Y-117586316D01*
X159261675Y-117911430D01*
X159112042Y-118272677D01*
X159035760Y-118656175D01*
X133101926Y-118656175D01*
X133165832Y-118613475D01*
X133372675Y-118406632D01*
X133535190Y-118163411D01*
X133647132Y-117893158D01*
X133704200Y-117606260D01*
X133704200Y-117313740D01*
X133647132Y-117026842D01*
X133535190Y-116756589D01*
X133372675Y-116513368D01*
X133240820Y-116381513D01*
X133313380Y-116359502D01*
X133423694Y-116300537D01*
X133520385Y-116221185D01*
X133599737Y-116124494D01*
X133658702Y-116014180D01*
X133695012Y-115894482D01*
X133707272Y-115770000D01*
X133707272Y-114070000D01*
X133695012Y-113945518D01*
X133658702Y-113825820D01*
X133599737Y-113715506D01*
X133520385Y-113618815D01*
X133505901Y-113606929D01*
X138059410Y-109053420D01*
X150451760Y-109053420D01*
X150451760Y-109345940D01*
X150508828Y-109632838D01*
X150620770Y-109903091D01*
X150783285Y-110146312D01*
X150990128Y-110353155D01*
X151233349Y-110515670D01*
X151503602Y-110627612D01*
X151790500Y-110684680D01*
X152083020Y-110684680D01*
X152369918Y-110627612D01*
X152640171Y-110515670D01*
X152883392Y-110353155D01*
X153090235Y-110146312D01*
X153252750Y-109903091D01*
X153364692Y-109632838D01*
X153421760Y-109345940D01*
X153421760Y-109053420D01*
X157451760Y-109053420D01*
X157451760Y-109345940D01*
X157508828Y-109632838D01*
X157620770Y-109903091D01*
X157783285Y-110146312D01*
X157990128Y-110353155D01*
X158233349Y-110515670D01*
X158503602Y-110627612D01*
X158790500Y-110684680D01*
X159083020Y-110684680D01*
X159369918Y-110627612D01*
X159640171Y-110515670D01*
X159883392Y-110353155D01*
X160090235Y-110146312D01*
X160252750Y-109903091D01*
X160364692Y-109632838D01*
X160421760Y-109345940D01*
X160421760Y-109053420D01*
X160364692Y-108766522D01*
X160252750Y-108496269D01*
X160090235Y-108253048D01*
X159883392Y-108046205D01*
X159640171Y-107883690D01*
X159369918Y-107771748D01*
X159083020Y-107714680D01*
X158790500Y-107714680D01*
X158503602Y-107771748D01*
X158233349Y-107883690D01*
X157990128Y-108046205D01*
X157783285Y-108253048D01*
X157620770Y-108496269D01*
X157508828Y-108766522D01*
X157451760Y-109053420D01*
X153421760Y-109053420D01*
X153364692Y-108766522D01*
X153252750Y-108496269D01*
X153090235Y-108253048D01*
X152883392Y-108046205D01*
X152640171Y-107883690D01*
X152369918Y-107771748D01*
X152083020Y-107714680D01*
X151790500Y-107714680D01*
X151503602Y-107771748D01*
X151233349Y-107883690D01*
X150990128Y-108046205D01*
X150783285Y-108253048D01*
X150620770Y-108496269D01*
X150508828Y-108766522D01*
X150451760Y-109053420D01*
X138059410Y-109053420D01*
X138910151Y-108202680D01*
X139024699Y-108202680D01*
X139224658Y-108162906D01*
X139413016Y-108084885D01*
X139582534Y-107971617D01*
X139726697Y-107827454D01*
X139839965Y-107657936D01*
X139917986Y-107469578D01*
X139957760Y-107269619D01*
X139957760Y-107065741D01*
X139917986Y-106865782D01*
X139839965Y-106677424D01*
X139726697Y-106507906D01*
X139582534Y-106363743D01*
X139413016Y-106250475D01*
X139224658Y-106172454D01*
X139024699Y-106132680D01*
X138820821Y-106132680D01*
X138620862Y-106172454D01*
X138432504Y-106250475D01*
X138262986Y-106363743D01*
X138118823Y-106507906D01*
X138005555Y-106677424D01*
X137927534Y-106865782D01*
X137887760Y-107065741D01*
X137887760Y-107069809D01*
X131706849Y-113250721D01*
X131677779Y-113274578D01*
X131653922Y-113303648D01*
X131653921Y-113303649D01*
X131582555Y-113390608D01*
X131560469Y-113431928D01*
X131369200Y-113431928D01*
X131244718Y-113444188D01*
X131125020Y-113480498D01*
X131014706Y-113539463D01*
X130918015Y-113618815D01*
X130838663Y-113715506D01*
X130779698Y-113825820D01*
X130757687Y-113898380D01*
X130625832Y-113766525D01*
X130382611Y-113604010D01*
X130112358Y-113492068D01*
X129825460Y-113435000D01*
X129532940Y-113435000D01*
X129246042Y-113492068D01*
X128975789Y-113604010D01*
X128732568Y-113766525D01*
X128525725Y-113973368D01*
X128409200Y-114147760D01*
X128292675Y-113973368D01*
X128085832Y-113766525D01*
X127842611Y-113604010D01*
X127572358Y-113492068D01*
X127285460Y-113435000D01*
X126992940Y-113435000D01*
X126706042Y-113492068D01*
X126435789Y-113604010D01*
X126192568Y-113766525D01*
X125985725Y-113973368D01*
X125869200Y-114147760D01*
X125752675Y-113973368D01*
X125545832Y-113766525D01*
X125488200Y-113728017D01*
X125488200Y-112445780D01*
X125492500Y-112402120D01*
X125488200Y-112358460D01*
X125488200Y-112358453D01*
X125475336Y-112227846D01*
X125424503Y-112060269D01*
X125341953Y-111905829D01*
X125230859Y-111770461D01*
X125196941Y-111742625D01*
X124687890Y-111233575D01*
X124677986Y-111183782D01*
X124599965Y-110995424D01*
X124486697Y-110825906D01*
X124342534Y-110681743D01*
X124173016Y-110568475D01*
X123984658Y-110490454D01*
X123784699Y-110450680D01*
X123580821Y-110450680D01*
X123380862Y-110490454D01*
X123192504Y-110568475D01*
X123022986Y-110681743D01*
X122878823Y-110825906D01*
X122765555Y-110995424D01*
X122687534Y-111183782D01*
X122647760Y-111383741D01*
X107394002Y-111383741D01*
X107415832Y-111369155D01*
X107622675Y-111162312D01*
X107785190Y-110919091D01*
X107897132Y-110648838D01*
X107954200Y-110361940D01*
X107954200Y-110069420D01*
X107897132Y-109782522D01*
X107785190Y-109512269D01*
X107622675Y-109269048D01*
X107415832Y-109062205D01*
X107172611Y-108899690D01*
X106902358Y-108787748D01*
X106615460Y-108730680D01*
X106322940Y-108730680D01*
X106036042Y-108787748D01*
X105765789Y-108899690D01*
X105522568Y-109062205D01*
X105315725Y-109269048D01*
X105153210Y-109512269D01*
X105041268Y-109782522D01*
X104984200Y-110069420D01*
X100954200Y-110069420D01*
X100897132Y-109782522D01*
X100785190Y-109512269D01*
X100622675Y-109269048D01*
X100415832Y-109062205D01*
X100172611Y-108899690D01*
X99902358Y-108787748D01*
X99615460Y-108730680D01*
X99322940Y-108730680D01*
X99036042Y-108787748D01*
X98765789Y-108899690D01*
X98522568Y-109062205D01*
X98315725Y-109269048D01*
X98153210Y-109512269D01*
X98041268Y-109782522D01*
X97984200Y-110069420D01*
X94878760Y-110069420D01*
X94878760Y-104368392D01*
X97642093Y-104368392D01*
X97749926Y-104643018D01*
X98056584Y-104793896D01*
X98386785Y-104882049D01*
X98727839Y-104904089D01*
X99066639Y-104859169D01*
X99390166Y-104749016D01*
X99588474Y-104643018D01*
X99696307Y-104368392D01*
X98669200Y-103341285D01*
X97642093Y-104368392D01*
X94878760Y-104368392D01*
X94878760Y-103220319D01*
X96926791Y-103220319D01*
X96971711Y-103559119D01*
X97081864Y-103882646D01*
X97187862Y-104080954D01*
X97462488Y-104188787D01*
X98489595Y-103161680D01*
X97462488Y-102134573D01*
X97187862Y-102242406D01*
X97036984Y-102549064D01*
X96948831Y-102879265D01*
X96926791Y-103220319D01*
X94878760Y-103220319D01*
X94878760Y-101954968D01*
X97642093Y-101954968D01*
X98669200Y-102982075D01*
X98683343Y-102967933D01*
X98862948Y-103147538D01*
X98848805Y-103161680D01*
X99875912Y-104188787D01*
X100150538Y-104080954D01*
X100301416Y-103774296D01*
X100389569Y-103444095D01*
X100411609Y-103103041D01*
X100384407Y-102897878D01*
X100648689Y-103074466D01*
X101059982Y-103244829D01*
X101496609Y-103331680D01*
X101941791Y-103331680D01*
X101981190Y-103323843D01*
X119224962Y-103323843D01*
X119297756Y-103568832D01*
X119554973Y-103690733D01*
X119831029Y-103760110D01*
X120115315Y-103774298D01*
X120396906Y-103732752D01*
X120664983Y-103637068D01*
X120792644Y-103568832D01*
X120865438Y-103323843D01*
X120045200Y-102503605D01*
X119224962Y-103323843D01*
X101981190Y-103323843D01*
X102378418Y-103244829D01*
X102789711Y-103074466D01*
X103159866Y-102827136D01*
X103474656Y-102512346D01*
X103553655Y-102394115D01*
X118594902Y-102394115D01*
X118636448Y-102675706D01*
X118732132Y-102943783D01*
X118800368Y-103071444D01*
X119045357Y-103144238D01*
X119865595Y-102324000D01*
X120224805Y-102324000D01*
X121045043Y-103144238D01*
X121290032Y-103071444D01*
X121411933Y-102814227D01*
X121481310Y-102538171D01*
X121495498Y-102253885D01*
X121484845Y-102181680D01*
X123600200Y-102181680D01*
X123600200Y-102466320D01*
X123655730Y-102745491D01*
X123764657Y-103008464D01*
X123922795Y-103245134D01*
X124124066Y-103446405D01*
X124360736Y-103604543D01*
X124623709Y-103713470D01*
X124902880Y-103769000D01*
X125187520Y-103769000D01*
X125466691Y-103713470D01*
X125729664Y-103604543D01*
X125966334Y-103446405D01*
X126167605Y-103245134D01*
X126325743Y-103008464D01*
X126434670Y-102745491D01*
X126490200Y-102466320D01*
X126490200Y-102181680D01*
X126434670Y-101902509D01*
X126325743Y-101639536D01*
X126167605Y-101402866D01*
X125966334Y-101201595D01*
X125729664Y-101043457D01*
X125466691Y-100934530D01*
X125187520Y-100879000D01*
X124902880Y-100879000D01*
X124623709Y-100934530D01*
X124360736Y-101043457D01*
X124124066Y-101201595D01*
X123922795Y-101402866D01*
X123764657Y-101639536D01*
X123655730Y-101902509D01*
X123600200Y-102181680D01*
X121484845Y-102181680D01*
X121453952Y-101972294D01*
X121358268Y-101704217D01*
X121290032Y-101576556D01*
X121045043Y-101503762D01*
X120224805Y-102324000D01*
X119865595Y-102324000D01*
X119045357Y-101503762D01*
X118800368Y-101576556D01*
X118678467Y-101833773D01*
X118609090Y-102109829D01*
X118594902Y-102394115D01*
X103553655Y-102394115D01*
X103721986Y-102142191D01*
X103892349Y-101730898D01*
X103973255Y-101324157D01*
X119224962Y-101324157D01*
X120045200Y-102144395D01*
X120865438Y-101324157D01*
X120792644Y-101079168D01*
X120535427Y-100957267D01*
X120259371Y-100887890D01*
X119975085Y-100873702D01*
X119693494Y-100915248D01*
X119425417Y-101010932D01*
X119297756Y-101079168D01*
X119224962Y-101324157D01*
X103973255Y-101324157D01*
X103979200Y-101294271D01*
X103979200Y-100849089D01*
X103892349Y-100412462D01*
X103721986Y-100001169D01*
X103474656Y-99631014D01*
X103296591Y-99452949D01*
X107327536Y-99452949D01*
X107386997Y-99686717D01*
X107625442Y-99797614D01*
X107880940Y-99859863D01*
X108143673Y-99871070D01*
X108403544Y-99830805D01*
X108650566Y-99740615D01*
X108751403Y-99686717D01*
X108810864Y-99452949D01*
X108069200Y-98711285D01*
X107327536Y-99452949D01*
X103296591Y-99452949D01*
X103159866Y-99316224D01*
X102789711Y-99068894D01*
X102378418Y-98898531D01*
X101941791Y-98811680D01*
X101496609Y-98811680D01*
X101059982Y-98898531D01*
X100648689Y-99068894D01*
X100278534Y-99316224D01*
X99963744Y-99631014D01*
X99716414Y-100001169D01*
X99546051Y-100412462D01*
X99459200Y-100849089D01*
X99459200Y-101294271D01*
X99530302Y-101651721D01*
X99281816Y-101529464D01*
X98951615Y-101441311D01*
X98610561Y-101419271D01*
X98271761Y-101464191D01*
X97948234Y-101574344D01*
X97749926Y-101680342D01*
X97642093Y-101954968D01*
X94878760Y-101954968D01*
X94878760Y-98606153D01*
X106729810Y-98606153D01*
X106770075Y-98866024D01*
X106860265Y-99113046D01*
X106914163Y-99213883D01*
X107147931Y-99273344D01*
X107889595Y-98531680D01*
X108248805Y-98531680D01*
X108990469Y-99273344D01*
X109224237Y-99213883D01*
X109335134Y-98975438D01*
X109397383Y-98719940D01*
X109408590Y-98457207D01*
X109368325Y-98197336D01*
X109278135Y-97950314D01*
X109224237Y-97849477D01*
X108990469Y-97790016D01*
X108248805Y-98531680D01*
X107889595Y-98531680D01*
X107147931Y-97790016D01*
X106914163Y-97849477D01*
X106803266Y-98087922D01*
X106741017Y-98343420D01*
X106729810Y-98606153D01*
X94878760Y-98606153D01*
X94878760Y-88758392D01*
X97642093Y-88758392D01*
X97749926Y-89033018D01*
X98056584Y-89183896D01*
X98386785Y-89272049D01*
X98727839Y-89294089D01*
X99066639Y-89249169D01*
X99390166Y-89139016D01*
X99529751Y-89064406D01*
X99459200Y-89419089D01*
X99459200Y-89864271D01*
X99546051Y-90300898D01*
X99716414Y-90712191D01*
X99963744Y-91082346D01*
X100278534Y-91397136D01*
X100648689Y-91644466D01*
X101059982Y-91814829D01*
X101496609Y-91901680D01*
X101941791Y-91901680D01*
X102378418Y-91814829D01*
X102789711Y-91644466D01*
X103159866Y-91397136D01*
X103474656Y-91082346D01*
X103676547Y-90780194D01*
X106734200Y-90780194D01*
X106734200Y-91043166D01*
X106785504Y-91301085D01*
X106886139Y-91544039D01*
X107032238Y-91762693D01*
X107218187Y-91948642D01*
X107436841Y-92094741D01*
X107646730Y-92181680D01*
X107436841Y-92268619D01*
X107218187Y-92414718D01*
X107032238Y-92600667D01*
X106886139Y-92819321D01*
X106785504Y-93062275D01*
X106734200Y-93320194D01*
X106734200Y-93583166D01*
X106785504Y-93841085D01*
X106886139Y-94084039D01*
X107032238Y-94302693D01*
X107218187Y-94488642D01*
X107436841Y-94634741D01*
X107646730Y-94721680D01*
X107436841Y-94808619D01*
X107218187Y-94954718D01*
X107032238Y-95140667D01*
X106886139Y-95359321D01*
X106785504Y-95602275D01*
X106734200Y-95860194D01*
X106734200Y-96123166D01*
X106785504Y-96381085D01*
X106886139Y-96624039D01*
X107032238Y-96842693D01*
X107218187Y-97028642D01*
X107436841Y-97174741D01*
X107650644Y-97263301D01*
X107487834Y-97322745D01*
X107386997Y-97376643D01*
X107327536Y-97610411D01*
X108069200Y-98352075D01*
X108810864Y-97610411D01*
X108751403Y-97376643D01*
X108512958Y-97265746D01*
X108493373Y-97260974D01*
X108701559Y-97174741D01*
X108920213Y-97028642D01*
X109106162Y-96842693D01*
X109165638Y-96753680D01*
X109374628Y-96753680D01*
X109325504Y-96872275D01*
X109274200Y-97130194D01*
X109274200Y-97393166D01*
X109325504Y-97651085D01*
X109426139Y-97894039D01*
X109572238Y-98112693D01*
X109758187Y-98298642D01*
X109976841Y-98444741D01*
X110186730Y-98531680D01*
X109976841Y-98618619D01*
X109758187Y-98764718D01*
X109572238Y-98950667D01*
X109426139Y-99169321D01*
X109325504Y-99412275D01*
X109274200Y-99670194D01*
X109274200Y-99933166D01*
X109325504Y-100191085D01*
X109426139Y-100434039D01*
X109572238Y-100652693D01*
X109758187Y-100838642D01*
X109976841Y-100984741D01*
X110219795Y-101085376D01*
X110477714Y-101136680D01*
X110740686Y-101136680D01*
X110998605Y-101085376D01*
X111241559Y-100984741D01*
X111460213Y-100838642D01*
X111594855Y-100704000D01*
X147677128Y-100704000D01*
X147677128Y-102404000D01*
X147689388Y-102528482D01*
X147725698Y-102648180D01*
X147784663Y-102758494D01*
X147864015Y-102855185D01*
X147960706Y-102934537D01*
X148071020Y-102993502D01*
X148190718Y-103029812D01*
X148315200Y-103042072D01*
X150015200Y-103042072D01*
X150139682Y-103029812D01*
X150259380Y-102993502D01*
X150369694Y-102934537D01*
X150466385Y-102855185D01*
X150545737Y-102758494D01*
X150604702Y-102648180D01*
X150626713Y-102575620D01*
X150758568Y-102707475D01*
X151001789Y-102869990D01*
X151272042Y-102981932D01*
X151558940Y-103039000D01*
X151851460Y-103039000D01*
X152138358Y-102981932D01*
X152408611Y-102869990D01*
X152651832Y-102707475D01*
X152858675Y-102500632D01*
X152980395Y-102318466D01*
X153050022Y-102435355D01*
X153244931Y-102651588D01*
X153478280Y-102825641D01*
X153741101Y-102950825D01*
X153888310Y-102995476D01*
X154118200Y-102874155D01*
X154118200Y-101681000D01*
X154372200Y-101681000D01*
X154372200Y-102874155D01*
X154602090Y-102995476D01*
X154749299Y-102950825D01*
X155012120Y-102825641D01*
X155245469Y-102651588D01*
X155440378Y-102435355D01*
X155589357Y-102185252D01*
X155686681Y-101910891D01*
X155566014Y-101681000D01*
X154372200Y-101681000D01*
X154118200Y-101681000D01*
X154098200Y-101681000D01*
X154098200Y-101427000D01*
X154118200Y-101427000D01*
X154118200Y-100233845D01*
X154372200Y-100233845D01*
X154372200Y-101427000D01*
X155566014Y-101427000D01*
X155686681Y-101197109D01*
X155589357Y-100922748D01*
X155440378Y-100672645D01*
X155245469Y-100456412D01*
X155012120Y-100282359D01*
X154749299Y-100157175D01*
X154602090Y-100112524D01*
X154372200Y-100233845D01*
X154118200Y-100233845D01*
X153888310Y-100112524D01*
X153741101Y-100157175D01*
X153478280Y-100282359D01*
X153244931Y-100456412D01*
X153050022Y-100672645D01*
X152980395Y-100789534D01*
X152858675Y-100607368D01*
X152651832Y-100400525D01*
X152408611Y-100238010D01*
X152138358Y-100126068D01*
X151851460Y-100069000D01*
X151558940Y-100069000D01*
X151272042Y-100126068D01*
X151001789Y-100238010D01*
X150758568Y-100400525D01*
X150626713Y-100532380D01*
X150604702Y-100459820D01*
X150545737Y-100349506D01*
X150466385Y-100252815D01*
X150369694Y-100173463D01*
X150259380Y-100114498D01*
X150139682Y-100078188D01*
X150015200Y-100065928D01*
X148315200Y-100065928D01*
X148190718Y-100078188D01*
X148071020Y-100114498D01*
X147960706Y-100173463D01*
X147864015Y-100252815D01*
X147784663Y-100349506D01*
X147725698Y-100459820D01*
X147689388Y-100579518D01*
X147677128Y-100704000D01*
X111594855Y-100704000D01*
X111646162Y-100652693D01*
X111792261Y-100434039D01*
X111892896Y-100191085D01*
X111944200Y-99933166D01*
X111944200Y-99670194D01*
X111892896Y-99412275D01*
X111792261Y-99169321D01*
X111646162Y-98950667D01*
X111460213Y-98764718D01*
X111241559Y-98618619D01*
X111031670Y-98531680D01*
X111241559Y-98444741D01*
X111460213Y-98298642D01*
X111646162Y-98112693D01*
X111792261Y-97894039D01*
X111892896Y-97651085D01*
X111944200Y-97393166D01*
X111944200Y-97181680D01*
X121100200Y-97181680D01*
X121100200Y-97466320D01*
X121155730Y-97745491D01*
X121264657Y-98008464D01*
X121422795Y-98245134D01*
X121624066Y-98446405D01*
X121860736Y-98604543D01*
X122123709Y-98713470D01*
X122402880Y-98769000D01*
X122687520Y-98769000D01*
X122966691Y-98713470D01*
X123229664Y-98604543D01*
X123466334Y-98446405D01*
X123667605Y-98245134D01*
X123825743Y-98008464D01*
X123934670Y-97745491D01*
X123990200Y-97466320D01*
X123990200Y-97181680D01*
X123934670Y-96902509D01*
X123825743Y-96639536D01*
X123667605Y-96402866D01*
X123466334Y-96201595D01*
X123229664Y-96043457D01*
X122966691Y-95934530D01*
X122687520Y-95879000D01*
X122402880Y-95879000D01*
X122123709Y-95934530D01*
X121860736Y-96043457D01*
X121624066Y-96201595D01*
X121422795Y-96402866D01*
X121264657Y-96639536D01*
X121155730Y-96902509D01*
X121100200Y-97181680D01*
X111944200Y-97181680D01*
X111944200Y-97130194D01*
X111892896Y-96872275D01*
X111843772Y-96753680D01*
X113837049Y-96753680D01*
X113878986Y-96795617D01*
X114048504Y-96908885D01*
X114236862Y-96986906D01*
X114436821Y-97026680D01*
X114640699Y-97026680D01*
X114840658Y-96986906D01*
X115029016Y-96908885D01*
X115198534Y-96795617D01*
X115342697Y-96651454D01*
X115455965Y-96481936D01*
X115533986Y-96293578D01*
X115573760Y-96093619D01*
X115573760Y-95889741D01*
X115536815Y-95704000D01*
X147637128Y-95704000D01*
X147637128Y-97404000D01*
X147649388Y-97528482D01*
X147685698Y-97648180D01*
X147744663Y-97758494D01*
X147824015Y-97855185D01*
X147920706Y-97934537D01*
X148031020Y-97993502D01*
X148150718Y-98029812D01*
X148275200Y-98042072D01*
X149975200Y-98042072D01*
X150099682Y-98029812D01*
X150219380Y-97993502D01*
X150329694Y-97934537D01*
X150426385Y-97855185D01*
X150505737Y-97758494D01*
X150564702Y-97648180D01*
X150586713Y-97575620D01*
X150718568Y-97707475D01*
X150961789Y-97869990D01*
X151232042Y-97981932D01*
X151518940Y-98039000D01*
X151811460Y-98039000D01*
X152098358Y-97981932D01*
X152368611Y-97869990D01*
X152611832Y-97707475D01*
X152818675Y-97500632D01*
X152940395Y-97318466D01*
X153010022Y-97435355D01*
X153204931Y-97651588D01*
X153438280Y-97825641D01*
X153701101Y-97950825D01*
X153848310Y-97995476D01*
X154078200Y-97874155D01*
X154078200Y-96681000D01*
X154332200Y-96681000D01*
X154332200Y-97874155D01*
X154562090Y-97995476D01*
X154709299Y-97950825D01*
X154972120Y-97825641D01*
X155205469Y-97651588D01*
X155400378Y-97435355D01*
X155549357Y-97185252D01*
X155646681Y-96910891D01*
X155526014Y-96681000D01*
X154332200Y-96681000D01*
X154078200Y-96681000D01*
X154058200Y-96681000D01*
X154058200Y-96427000D01*
X154078200Y-96427000D01*
X154078200Y-95233845D01*
X154332200Y-95233845D01*
X154332200Y-96427000D01*
X155526014Y-96427000D01*
X155646681Y-96197109D01*
X155549357Y-95922748D01*
X155400378Y-95672645D01*
X155205469Y-95456412D01*
X154972120Y-95282359D01*
X154709299Y-95157175D01*
X154562090Y-95112524D01*
X154332200Y-95233845D01*
X154078200Y-95233845D01*
X153848310Y-95112524D01*
X153701101Y-95157175D01*
X153438280Y-95282359D01*
X153204931Y-95456412D01*
X153010022Y-95672645D01*
X152940395Y-95789534D01*
X152818675Y-95607368D01*
X152611832Y-95400525D01*
X152368611Y-95238010D01*
X152098358Y-95126068D01*
X151811460Y-95069000D01*
X151518940Y-95069000D01*
X151232042Y-95126068D01*
X150961789Y-95238010D01*
X150718568Y-95400525D01*
X150586713Y-95532380D01*
X150564702Y-95459820D01*
X150505737Y-95349506D01*
X150426385Y-95252815D01*
X150329694Y-95173463D01*
X150219380Y-95114498D01*
X150099682Y-95078188D01*
X149975200Y-95065928D01*
X148275200Y-95065928D01*
X148150718Y-95078188D01*
X148031020Y-95114498D01*
X147920706Y-95173463D01*
X147824015Y-95252815D01*
X147744663Y-95349506D01*
X147685698Y-95459820D01*
X147649388Y-95579518D01*
X147637128Y-95704000D01*
X115536815Y-95704000D01*
X115533986Y-95689782D01*
X115455965Y-95501424D01*
X115342697Y-95331906D01*
X115198534Y-95187743D01*
X115029016Y-95074475D01*
X114840658Y-94996454D01*
X114640699Y-94956680D01*
X114436821Y-94956680D01*
X114236862Y-94996454D01*
X114048504Y-95074475D01*
X113878986Y-95187743D01*
X113837049Y-95229680D01*
X111845256Y-95229680D01*
X111875134Y-95165438D01*
X111937383Y-94909940D01*
X111948590Y-94647207D01*
X111908325Y-94387336D01*
X111818135Y-94140314D01*
X111764237Y-94039477D01*
X111530469Y-93980016D01*
X110788805Y-94721680D01*
X110802948Y-94735823D01*
X110623343Y-94915428D01*
X110609200Y-94901285D01*
X110595058Y-94915428D01*
X110415453Y-94735823D01*
X110429595Y-94721680D01*
X109687931Y-93980016D01*
X109454163Y-94039477D01*
X109343266Y-94277922D01*
X109281017Y-94533420D01*
X109269810Y-94796153D01*
X109310075Y-95056024D01*
X109373478Y-95229680D01*
X109165638Y-95229680D01*
X109106162Y-95140667D01*
X108920213Y-94954718D01*
X108701559Y-94808619D01*
X108491670Y-94721680D01*
X108701559Y-94634741D01*
X108920213Y-94488642D01*
X109106162Y-94302693D01*
X109252261Y-94084039D01*
X109352896Y-93841085D01*
X109404200Y-93583166D01*
X109404200Y-93320194D01*
X109352896Y-93062275D01*
X109252261Y-92819321D01*
X109106162Y-92600667D01*
X108920213Y-92414718D01*
X108701559Y-92268619D01*
X108491670Y-92181680D01*
X108701559Y-92094741D01*
X108768228Y-92050194D01*
X109274200Y-92050194D01*
X109274200Y-92313166D01*
X109325504Y-92571085D01*
X109426139Y-92814039D01*
X109572238Y-93032693D01*
X109758187Y-93218642D01*
X109976841Y-93364741D01*
X110190644Y-93453301D01*
X110027834Y-93512745D01*
X109926997Y-93566643D01*
X109867536Y-93800411D01*
X110609200Y-94542075D01*
X111350864Y-93800411D01*
X111291403Y-93566643D01*
X111052958Y-93455746D01*
X111033373Y-93450974D01*
X111241559Y-93364741D01*
X111460213Y-93218642D01*
X111646162Y-93032693D01*
X111792261Y-92814039D01*
X111892896Y-92571085D01*
X111944200Y-92313166D01*
X111944200Y-92050194D01*
X111892896Y-91792275D01*
X111792261Y-91549321D01*
X111646162Y-91330667D01*
X111460213Y-91144718D01*
X111241559Y-90998619D01*
X110998605Y-90897984D01*
X110740686Y-90846680D01*
X110477714Y-90846680D01*
X110219795Y-90897984D01*
X109976841Y-90998619D01*
X109758187Y-91144718D01*
X109572238Y-91330667D01*
X109426139Y-91549321D01*
X109325504Y-91792275D01*
X109274200Y-92050194D01*
X108768228Y-92050194D01*
X108920213Y-91948642D01*
X109106162Y-91762693D01*
X109252261Y-91544039D01*
X109352896Y-91301085D01*
X109404200Y-91043166D01*
X109404200Y-90780194D01*
X109352896Y-90522275D01*
X109305454Y-90407740D01*
X150451760Y-90407740D01*
X150451760Y-90700260D01*
X150508828Y-90987158D01*
X150620770Y-91257411D01*
X150783285Y-91500632D01*
X150990128Y-91707475D01*
X151233349Y-91869990D01*
X151503602Y-91981932D01*
X151790500Y-92039000D01*
X152083020Y-92039000D01*
X152369918Y-91981932D01*
X152640171Y-91869990D01*
X152883392Y-91707475D01*
X153090235Y-91500632D01*
X153252750Y-91257411D01*
X153364692Y-90987158D01*
X153421760Y-90700260D01*
X153421760Y-90407740D01*
X157451760Y-90407740D01*
X157451760Y-90700260D01*
X157508828Y-90987158D01*
X157620770Y-91257411D01*
X157783285Y-91500632D01*
X157990128Y-91707475D01*
X158233349Y-91869990D01*
X158503602Y-91981932D01*
X158790500Y-92039000D01*
X159083020Y-92039000D01*
X159369918Y-91981932D01*
X159640171Y-91869990D01*
X159883392Y-91707475D01*
X160090235Y-91500632D01*
X160252750Y-91257411D01*
X160364692Y-90987158D01*
X160421760Y-90700260D01*
X160421760Y-90407740D01*
X160364692Y-90120842D01*
X160252750Y-89850589D01*
X160090235Y-89607368D01*
X159883392Y-89400525D01*
X159640171Y-89238010D01*
X159369918Y-89126068D01*
X159083020Y-89069000D01*
X158790500Y-89069000D01*
X158503602Y-89126068D01*
X158233349Y-89238010D01*
X157990128Y-89400525D01*
X157783285Y-89607368D01*
X157620770Y-89850589D01*
X157508828Y-90120842D01*
X157451760Y-90407740D01*
X153421760Y-90407740D01*
X153364692Y-90120842D01*
X153252750Y-89850589D01*
X153090235Y-89607368D01*
X152883392Y-89400525D01*
X152640171Y-89238010D01*
X152369918Y-89126068D01*
X152083020Y-89069000D01*
X151790500Y-89069000D01*
X151503602Y-89126068D01*
X151233349Y-89238010D01*
X150990128Y-89400525D01*
X150783285Y-89607368D01*
X150620770Y-89850589D01*
X150508828Y-90120842D01*
X150451760Y-90407740D01*
X109305454Y-90407740D01*
X109252261Y-90279321D01*
X109106162Y-90060667D01*
X108920213Y-89874718D01*
X108701559Y-89728619D01*
X108458605Y-89627984D01*
X108200686Y-89576680D01*
X107937714Y-89576680D01*
X107679795Y-89627984D01*
X107436841Y-89728619D01*
X107218187Y-89874718D01*
X107032238Y-90060667D01*
X106886139Y-90279321D01*
X106785504Y-90522275D01*
X106734200Y-90780194D01*
X103676547Y-90780194D01*
X103721986Y-90712191D01*
X103892349Y-90300898D01*
X103979200Y-89864271D01*
X103979200Y-89419089D01*
X103892349Y-88982462D01*
X103721986Y-88571169D01*
X103474656Y-88201014D01*
X103159866Y-87886224D01*
X102789711Y-87638894D01*
X102378418Y-87468531D01*
X101941791Y-87381680D01*
X101496609Y-87381680D01*
X101059982Y-87468531D01*
X100648689Y-87638894D01*
X100391059Y-87811037D01*
X100411609Y-87493041D01*
X100366689Y-87154241D01*
X100256536Y-86830714D01*
X100150538Y-86632406D01*
X99875912Y-86524573D01*
X98848805Y-87551680D01*
X98862948Y-87565823D01*
X98683343Y-87745428D01*
X98669200Y-87731285D01*
X97642093Y-88758392D01*
X94878760Y-88758392D01*
X94878760Y-87610319D01*
X96926791Y-87610319D01*
X96971711Y-87949119D01*
X97081864Y-88272646D01*
X97187862Y-88470954D01*
X97462488Y-88578787D01*
X98489595Y-87551680D01*
X97462488Y-86524573D01*
X97187862Y-86632406D01*
X97036984Y-86939064D01*
X96948831Y-87269265D01*
X96926791Y-87610319D01*
X94878760Y-87610319D01*
X94878760Y-86371959D01*
X94881406Y-86344968D01*
X97642093Y-86344968D01*
X98669200Y-87372075D01*
X99696307Y-86344968D01*
X99588474Y-86070342D01*
X99281816Y-85919464D01*
X98951615Y-85831311D01*
X98610561Y-85809271D01*
X98271761Y-85854191D01*
X97948234Y-85964344D01*
X97749926Y-86070342D01*
X97642093Y-86344968D01*
X94881406Y-86344968D01*
X94917669Y-85975135D01*
X95023540Y-85624472D01*
X95195504Y-85301055D01*
X95427014Y-85017196D01*
X95709246Y-84783715D01*
X96031455Y-84609497D01*
X96381374Y-84501178D01*
X96776203Y-84459680D01*
X161496481Y-84459680D01*
X161893305Y-84498589D01*
M02*
