M48
; DRILL file {KiCad 5.1.5-52549c5~86~ubuntu18.04.1} date Sun 17 May 2020 06:14:24 PM EDT
; FORMAT={-:-/ absolute / inch / decimal}
; #@! TF.CreationDate,2020-05-17T18:14:24-04:00
; #@! TF.GenerationSoftware,Kicad,Pcbnew,5.1.5-52549c5~86~ubuntu18.04.1
; #@! TF.FileFunction,Plated,1,2,PTH
FMAT,2
INCH
T1C0.0157
T2C0.0354
T3C0.0394
T4C0.0630
%
G90
G05
T1
X3.9494Y-4.5192
X4.4694Y-4.6492
X4.5094Y-3.7792
X4.7694Y-4.4192
X4.8694Y-4.3892
X5.1894Y-4.7292
X5.4694Y-4.2192
X6.2194Y-4.1592
X6.3694Y-3.5292
T2
X4.7262Y-4.0285
X4.8246Y-3.8317
X4.923Y-4.0285
X4.2547Y-3.5792
X4.2547Y-3.6792
X4.2547Y-3.7792
X4.2547Y-3.8792
X4.3547Y-3.6292
X4.3547Y-3.7292
X4.3547Y-3.8292
X4.3547Y-3.9292
T3
X5.8726Y-3.9982
X5.9726Y-3.9982
X6.0726Y-3.9982
X4.9055Y-4.5244
X4.9055Y-4.6244
X5.0055Y-4.5244
X5.0055Y-4.6244
X5.1055Y-4.5244
X5.1055Y-4.6244
X5.2055Y-4.5244
X5.2055Y-4.6244
X5.8711Y-3.8013
X5.9711Y-3.8013
X6.0711Y-3.8013
T4
X3.8846Y-3.4469
X3.8846Y-4.0615
T0
M30
