G04 #@! TF.GenerationSoftware,KiCad,Pcbnew,5.1.5-52549c5~86~ubuntu18.04.1*
G04 #@! TF.CreationDate,2020-05-17T18:14:26-04:00*
G04 #@! TF.ProjectId,ft-891-Audio_Interface,66742d38-3931-42d4-9175-64696f5f496e,rev?*
G04 #@! TF.SameCoordinates,Original*
G04 #@! TF.FileFunction,Legend,Top*
G04 #@! TF.FilePolarity,Positive*
%FSLAX46Y46*%
G04 Gerber Fmt 4.6, Leading zero omitted, Abs format (unit mm)*
G04 Created by KiCad (PCBNEW 5.1.5-52549c5~86~ubuntu18.04.1) date 2020-05-17 18:14:26*
%MOMM*%
%LPD*%
G04 APERTURE LIST*
%ADD10C,0.100000*%
%ADD11C,0.120000*%
%ADD12C,0.150000*%
G04 APERTURE END LIST*
D10*
X133781104Y-120072380D02*
X133781104Y-119072380D01*
X133781104Y-119548571D02*
X134352533Y-119548571D01*
X134352533Y-120072380D02*
X134352533Y-119072380D01*
X135209676Y-120024761D02*
X135114438Y-120072380D01*
X134923961Y-120072380D01*
X134828723Y-120024761D01*
X134781104Y-119929523D01*
X134781104Y-119548571D01*
X134828723Y-119453333D01*
X134923961Y-119405714D01*
X135114438Y-119405714D01*
X135209676Y-119453333D01*
X135257295Y-119548571D01*
X135257295Y-119643809D01*
X134781104Y-119739047D01*
X136114438Y-120072380D02*
X136114438Y-119548571D01*
X136066819Y-119453333D01*
X135971580Y-119405714D01*
X135781104Y-119405714D01*
X135685866Y-119453333D01*
X136114438Y-120024761D02*
X136019200Y-120072380D01*
X135781104Y-120072380D01*
X135685866Y-120024761D01*
X135638247Y-119929523D01*
X135638247Y-119834285D01*
X135685866Y-119739047D01*
X135781104Y-119691428D01*
X136019200Y-119691428D01*
X136114438Y-119643809D01*
X137019200Y-120072380D02*
X137019200Y-119072380D01*
X137019200Y-120024761D02*
X136923961Y-120072380D01*
X136733485Y-120072380D01*
X136638247Y-120024761D01*
X136590628Y-119977142D01*
X136543009Y-119881904D01*
X136543009Y-119596190D01*
X136590628Y-119500952D01*
X136638247Y-119453333D01*
X136733485Y-119405714D01*
X136923961Y-119405714D01*
X137019200Y-119453333D01*
X137447771Y-120024761D02*
X137543009Y-120072380D01*
X137733485Y-120072380D01*
X137828723Y-120024761D01*
X137876342Y-119929523D01*
X137876342Y-119881904D01*
X137828723Y-119786666D01*
X137733485Y-119739047D01*
X137590628Y-119739047D01*
X137495390Y-119691428D01*
X137447771Y-119596190D01*
X137447771Y-119548571D01*
X137495390Y-119453333D01*
X137590628Y-119405714D01*
X137733485Y-119405714D01*
X137828723Y-119453333D01*
X138685866Y-120024761D02*
X138590628Y-120072380D01*
X138400152Y-120072380D01*
X138304914Y-120024761D01*
X138257295Y-119929523D01*
X138257295Y-119548571D01*
X138304914Y-119453333D01*
X138400152Y-119405714D01*
X138590628Y-119405714D01*
X138685866Y-119453333D01*
X138733485Y-119548571D01*
X138733485Y-119643809D01*
X138257295Y-119739047D01*
X139019200Y-119405714D02*
X139400152Y-119405714D01*
X139162057Y-119072380D02*
X139162057Y-119929523D01*
X139209676Y-120024761D01*
X139304914Y-120072380D01*
X139400152Y-120072380D01*
X152541390Y-87806380D02*
X152541390Y-86806380D01*
X152922342Y-86806380D01*
X153017580Y-86854000D01*
X153065200Y-86901619D01*
X153112819Y-86996857D01*
X153112819Y-87139714D01*
X153065200Y-87234952D01*
X153017580Y-87282571D01*
X152922342Y-87330190D01*
X152541390Y-87330190D01*
X153398533Y-86806380D02*
X153969961Y-86806380D01*
X153684247Y-87806380D02*
X153684247Y-86806380D01*
X154160438Y-86806380D02*
X154731866Y-86806380D01*
X154446152Y-87806380D02*
X154446152Y-86806380D01*
X153965200Y-99663523D02*
X153927104Y-99739714D01*
X153927104Y-99854000D01*
X153965200Y-99968285D01*
X154041390Y-100044476D01*
X154117580Y-100082571D01*
X154269961Y-100120666D01*
X154384247Y-100120666D01*
X154536628Y-100082571D01*
X154612819Y-100044476D01*
X154689009Y-99968285D01*
X154727104Y-99854000D01*
X154727104Y-99777809D01*
X154689009Y-99663523D01*
X154650914Y-99625428D01*
X154384247Y-99625428D01*
X154384247Y-99777809D01*
X154727104Y-99282571D02*
X153927104Y-99282571D01*
X154727104Y-98825428D01*
X153927104Y-98825428D01*
X154727104Y-98444476D02*
X153927104Y-98444476D01*
X153927104Y-98254000D01*
X153965200Y-98139714D01*
X154041390Y-98063523D01*
X154117580Y-98025428D01*
X154269961Y-97987333D01*
X154384247Y-97987333D01*
X154536628Y-98025428D01*
X154612819Y-98063523D01*
X154689009Y-98139714D01*
X154727104Y-98254000D01*
X154727104Y-98444476D01*
X152074723Y-99906380D02*
X151741390Y-99430190D01*
X151503295Y-99906380D02*
X151503295Y-98906380D01*
X151884247Y-98906380D01*
X151979485Y-98954000D01*
X152027104Y-99001619D01*
X152074723Y-99096857D01*
X152074723Y-99239714D01*
X152027104Y-99334952D01*
X151979485Y-99382571D01*
X151884247Y-99430190D01*
X151503295Y-99430190D01*
X149574723Y-99906380D02*
X149098533Y-99906380D01*
X149098533Y-98906380D01*
X147941390Y-94606380D02*
X147941390Y-93606380D01*
X148322342Y-93606380D01*
X148417580Y-93654000D01*
X148465200Y-93701619D01*
X148512819Y-93796857D01*
X148512819Y-93939714D01*
X148465200Y-94034952D01*
X148417580Y-94082571D01*
X148322342Y-94130190D01*
X147941390Y-94130190D01*
X148798533Y-93606380D02*
X149369961Y-93606380D01*
X149084247Y-94606380D02*
X149084247Y-93606380D01*
X149560438Y-93606380D02*
X150131866Y-93606380D01*
X149846152Y-94606380D02*
X149846152Y-93606380D01*
X150693771Y-94606380D02*
X150693771Y-93606380D01*
X151027104Y-94320666D01*
X151360438Y-93606380D01*
X151360438Y-94606380D01*
X151836628Y-94606380D02*
X151836628Y-93606380D01*
X152884247Y-94511142D02*
X152836628Y-94558761D01*
X152693771Y-94606380D01*
X152598533Y-94606380D01*
X152455676Y-94558761D01*
X152360438Y-94463523D01*
X152312819Y-94368285D01*
X152265200Y-94177809D01*
X152265200Y-94034952D01*
X152312819Y-93844476D01*
X152360438Y-93749238D01*
X152455676Y-93654000D01*
X152598533Y-93606380D01*
X152693771Y-93606380D01*
X152836628Y-93654000D01*
X152884247Y-93701619D01*
D11*
X123219200Y-120920000D02*
X123219200Y-118790000D01*
X126219200Y-120920000D02*
X123219200Y-120920000D01*
X126219200Y-118820000D02*
X126219200Y-120920000D01*
X125969200Y-111920000D02*
X125969200Y-113670000D01*
X123269200Y-111920000D02*
X125969200Y-111920000D01*
X123269200Y-113590000D02*
X123269200Y-111920000D01*
D10*
X126766819Y-120229523D02*
X127243009Y-119896190D01*
X126766819Y-119658095D02*
X127766819Y-119658095D01*
X127766819Y-120039047D01*
X127719200Y-120134285D01*
X127671580Y-120181904D01*
X127576342Y-120229523D01*
X127433485Y-120229523D01*
X127338247Y-120181904D01*
X127290628Y-120134285D01*
X127243009Y-120039047D01*
X127243009Y-119658095D01*
X129266819Y-120229523D02*
X129266819Y-119753333D01*
X130266819Y-119753333D01*
X131766819Y-118848571D02*
X132766819Y-118848571D01*
X132052533Y-119181904D01*
X132766819Y-119515238D01*
X131766819Y-119515238D01*
X131766819Y-119991428D02*
X132766819Y-119991428D01*
X131862057Y-121039047D02*
X131814438Y-120991428D01*
X131766819Y-120848571D01*
X131766819Y-120753333D01*
X131814438Y-120610476D01*
X131909676Y-120515238D01*
X132004914Y-120467619D01*
X132195390Y-120420000D01*
X132338247Y-120420000D01*
X132528723Y-120467619D01*
X132623961Y-120515238D01*
X132719200Y-120610476D01*
X132766819Y-120753333D01*
X132766819Y-120848571D01*
X132719200Y-120991428D01*
X132671580Y-121039047D01*
D12*
X123957295Y-119420000D02*
X123862057Y-119372380D01*
X123719200Y-119372380D01*
X123576342Y-119420000D01*
X123481104Y-119515238D01*
X123433485Y-119610476D01*
X123385866Y-119800952D01*
X123385866Y-119943809D01*
X123433485Y-120134285D01*
X123481104Y-120229523D01*
X123576342Y-120324761D01*
X123719200Y-120372380D01*
X123814438Y-120372380D01*
X123957295Y-120324761D01*
X124004914Y-120277142D01*
X124004914Y-119943809D01*
X123814438Y-119943809D01*
X124433485Y-120372380D02*
X124433485Y-119372380D01*
X125004914Y-120372380D01*
X125004914Y-119372380D01*
X125481104Y-120372380D02*
X125481104Y-119372380D01*
X125719200Y-119372380D01*
X125862057Y-119420000D01*
X125957295Y-119515238D01*
X126004914Y-119610476D01*
X126052533Y-119800952D01*
X126052533Y-119943809D01*
X126004914Y-120134285D01*
X125957295Y-120229523D01*
X125862057Y-120324761D01*
X125719200Y-120372380D01*
X125481104Y-120372380D01*
X124528723Y-112372380D02*
X124052533Y-112372380D01*
X124004914Y-112848571D01*
X124052533Y-112800952D01*
X124147771Y-112753333D01*
X124385866Y-112753333D01*
X124481104Y-112800952D01*
X124528723Y-112848571D01*
X124576342Y-112943809D01*
X124576342Y-113181904D01*
X124528723Y-113277142D01*
X124481104Y-113324761D01*
X124385866Y-113372380D01*
X124147771Y-113372380D01*
X124052533Y-113324761D01*
X124004914Y-113277142D01*
X124862057Y-112372380D02*
X125195390Y-113372380D01*
X125528723Y-112372380D01*
D11*
X155575200Y-102884000D02*
X155575200Y-100224000D01*
X150435200Y-102884000D02*
X155575200Y-102884000D01*
X150435200Y-100224000D02*
X155575200Y-100224000D01*
X150435200Y-102884000D02*
X150435200Y-100224000D01*
X149165200Y-102884000D02*
X147835200Y-102884000D01*
X147835200Y-102884000D02*
X147835200Y-101554000D01*
X123269200Y-113590000D02*
X123269200Y-118790000D01*
X130949200Y-113590000D02*
X123269200Y-113590000D01*
X133549200Y-118790000D02*
X123269200Y-118790000D01*
X130949200Y-113590000D02*
X130949200Y-116190000D01*
X130949200Y-116190000D02*
X133549200Y-116190000D01*
X133549200Y-116190000D02*
X133549200Y-118790000D01*
X132219200Y-113590000D02*
X133549200Y-113590000D01*
X133549200Y-113590000D02*
X133549200Y-114920000D01*
D12*
X112239200Y-103241680D02*
X93919200Y-103241680D01*
X112239200Y-87541680D02*
X112239200Y-103241680D01*
X93919200Y-87541680D02*
X112239200Y-87541680D01*
X163436760Y-92854000D02*
X163436760Y-88254000D01*
X163436760Y-88254000D02*
X147936760Y-88254000D01*
X147936760Y-92854000D02*
X147936760Y-88254000D01*
X163436760Y-92854000D02*
X147936760Y-92854000D01*
X163436760Y-111499680D02*
X163436760Y-106899680D01*
X163436760Y-106899680D02*
X147936760Y-106899680D01*
X147936760Y-111499680D02*
X147936760Y-106899680D01*
X163436760Y-111499680D02*
X147936760Y-111499680D01*
X94969200Y-107915680D02*
X94969200Y-112515680D01*
X94969200Y-112515680D02*
X110469200Y-112515680D01*
X110469200Y-107915680D02*
X110469200Y-112515680D01*
X94969200Y-107915680D02*
X110469200Y-107915680D01*
D11*
X123445200Y-99824000D02*
G75*
G03X123445200Y-99824000I-900000J0D01*
G01*
X119335200Y-101451000D02*
X119335200Y-96614000D01*
X125755200Y-101451000D02*
X125755200Y-96614000D01*
X120803200Y-103034000D02*
X124288200Y-103034000D01*
X119335200Y-96614000D02*
X121788200Y-96614000D01*
X123303200Y-96614000D02*
X125755200Y-96614000D01*
X121545200Y-93254000D02*
X123545200Y-93254000D01*
X123545200Y-95394000D02*
X121545200Y-95394000D01*
X117149200Y-116920000D02*
X117149200Y-114920000D01*
X119289200Y-114920000D02*
X119289200Y-116920000D01*
X155535200Y-97884000D02*
X155535200Y-95224000D01*
X150395200Y-97884000D02*
X155535200Y-97884000D01*
X150395200Y-95224000D02*
X155535200Y-95224000D01*
X150395200Y-97884000D02*
X150395200Y-95224000D01*
X149125200Y-97884000D02*
X147795200Y-97884000D01*
X147795200Y-97884000D02*
X147795200Y-96554000D01*
X128382760Y-96881680D02*
X128382760Y-99561680D01*
X128382760Y-105261680D02*
X128382760Y-102581680D01*
X136762760Y-104501680D02*
X136762760Y-102581680D01*
X136762760Y-97641680D02*
X136762760Y-99561680D01*
X128382760Y-96881680D02*
X136002760Y-96881680D01*
X136002760Y-96881680D02*
X136762760Y-97641680D01*
X136762760Y-104501680D02*
X136002760Y-105261680D01*
X136002760Y-105261680D02*
X128382760Y-105261680D01*
X128355200Y-87134000D02*
X128355200Y-89814000D01*
X128355200Y-95514000D02*
X128355200Y-92834000D01*
X136735200Y-94754000D02*
X136735200Y-92834000D01*
X136735200Y-87894000D02*
X136735200Y-89814000D01*
X128355200Y-87134000D02*
X135975200Y-87134000D01*
X135975200Y-87134000D02*
X136735200Y-87894000D01*
X136735200Y-94754000D02*
X135975200Y-95514000D01*
X135975200Y-95514000D02*
X128355200Y-95514000D01*
X120199200Y-114920000D02*
X120199200Y-116920000D01*
X122239200Y-116920000D02*
X122239200Y-114920000D01*
X116239200Y-116920000D02*
X116239200Y-114920000D01*
X114199200Y-114920000D02*
X114199200Y-116920000D01*
D12*
X156331866Y-101006380D02*
X156331866Y-101720666D01*
X156284247Y-101863523D01*
X156189009Y-101958761D01*
X156046152Y-102006380D01*
X155950914Y-102006380D01*
X157284247Y-101006380D02*
X156808057Y-101006380D01*
X156760438Y-101482571D01*
X156808057Y-101434952D01*
X156903295Y-101387333D01*
X157141390Y-101387333D01*
X157236628Y-101434952D01*
X157284247Y-101482571D01*
X157331866Y-101577809D01*
X157331866Y-101815904D01*
X157284247Y-101911142D01*
X157236628Y-101958761D01*
X157141390Y-102006380D01*
X156903295Y-102006380D01*
X156808057Y-101958761D01*
X156760438Y-101911142D01*
X131885866Y-112372380D02*
X131885866Y-113086666D01*
X131838247Y-113229523D01*
X131743009Y-113324761D01*
X131600152Y-113372380D01*
X131504914Y-113372380D01*
X132266819Y-112372380D02*
X132933485Y-112372380D01*
X132504914Y-113372380D01*
X112885866Y-88094060D02*
X112885866Y-88808346D01*
X112838247Y-88951203D01*
X112743009Y-89046441D01*
X112600152Y-89094060D01*
X112504914Y-89094060D01*
X113885866Y-89094060D02*
X113314438Y-89094060D01*
X113600152Y-89094060D02*
X113600152Y-88094060D01*
X113504914Y-88236918D01*
X113409676Y-88332156D01*
X113314438Y-88379775D01*
X155353426Y-86006380D02*
X155353426Y-86720666D01*
X155305807Y-86863523D01*
X155210569Y-86958761D01*
X155067712Y-87006380D01*
X154972474Y-87006380D01*
X156258188Y-86339714D02*
X156258188Y-87006380D01*
X156020093Y-85958761D02*
X155781998Y-86673047D01*
X156401045Y-86673047D01*
X155353426Y-105152060D02*
X155353426Y-105866346D01*
X155305807Y-106009203D01*
X155210569Y-106104441D01*
X155067712Y-106152060D01*
X154972474Y-106152060D01*
X155734379Y-105152060D02*
X156353426Y-105152060D01*
X156020093Y-105533013D01*
X156162950Y-105533013D01*
X156258188Y-105580632D01*
X156305807Y-105628251D01*
X156353426Y-105723489D01*
X156353426Y-105961584D01*
X156305807Y-106056822D01*
X156258188Y-106104441D01*
X156162950Y-106152060D01*
X155877236Y-106152060D01*
X155781998Y-106104441D01*
X155734379Y-106056822D01*
X108885866Y-106168060D02*
X108885866Y-106882346D01*
X108838247Y-107025203D01*
X108743009Y-107120441D01*
X108600152Y-107168060D01*
X108504914Y-107168060D01*
X109314438Y-106263299D02*
X109362057Y-106215680D01*
X109457295Y-106168060D01*
X109695390Y-106168060D01*
X109790628Y-106215680D01*
X109838247Y-106263299D01*
X109885866Y-106358537D01*
X109885866Y-106453775D01*
X109838247Y-106596632D01*
X109266819Y-107168060D01*
X109885866Y-107168060D01*
X121449961Y-104776380D02*
X121116628Y-104300190D01*
X120878533Y-104776380D02*
X120878533Y-103776380D01*
X121259485Y-103776380D01*
X121354723Y-103824000D01*
X121402342Y-103871619D01*
X121449961Y-103966857D01*
X121449961Y-104109714D01*
X121402342Y-104204952D01*
X121354723Y-104252571D01*
X121259485Y-104300190D01*
X120878533Y-104300190D01*
X121735676Y-103776380D02*
X122069009Y-104776380D01*
X122402342Y-103776380D01*
X123259485Y-104776380D02*
X122688057Y-104776380D01*
X122973771Y-104776380D02*
X122973771Y-103776380D01*
X122878533Y-103919238D01*
X122783295Y-104014476D01*
X122688057Y-104062095D01*
X122378533Y-92776380D02*
X122045200Y-92300190D01*
X121807104Y-92776380D02*
X121807104Y-91776380D01*
X122188057Y-91776380D01*
X122283295Y-91824000D01*
X122330914Y-91871619D01*
X122378533Y-91966857D01*
X122378533Y-92109714D01*
X122330914Y-92204952D01*
X122283295Y-92252571D01*
X122188057Y-92300190D01*
X121807104Y-92300190D01*
X122759485Y-91871619D02*
X122807104Y-91824000D01*
X122902342Y-91776380D01*
X123140438Y-91776380D01*
X123235676Y-91824000D01*
X123283295Y-91871619D01*
X123330914Y-91966857D01*
X123330914Y-92062095D01*
X123283295Y-92204952D01*
X122711866Y-92776380D01*
X123330914Y-92776380D01*
X118052533Y-120372380D02*
X117719200Y-119896190D01*
X117481104Y-120372380D02*
X117481104Y-119372380D01*
X117862057Y-119372380D01*
X117957295Y-119420000D01*
X118004914Y-119467619D01*
X118052533Y-119562857D01*
X118052533Y-119705714D01*
X118004914Y-119800952D01*
X117957295Y-119848571D01*
X117862057Y-119896190D01*
X117481104Y-119896190D01*
X119004914Y-120372380D02*
X118433485Y-120372380D01*
X118719200Y-120372380D02*
X118719200Y-119372380D01*
X118623961Y-119515238D01*
X118528723Y-119610476D01*
X118433485Y-119658095D01*
X156331866Y-96006380D02*
X156331866Y-96720666D01*
X156284247Y-96863523D01*
X156189009Y-96958761D01*
X156046152Y-97006380D01*
X155950914Y-97006380D01*
X157236628Y-96006380D02*
X157046152Y-96006380D01*
X156950914Y-96054000D01*
X156903295Y-96101619D01*
X156808057Y-96244476D01*
X156760438Y-96434952D01*
X156760438Y-96815904D01*
X156808057Y-96911142D01*
X156855676Y-96958761D01*
X156950914Y-97006380D01*
X157141390Y-97006380D01*
X157236628Y-96958761D01*
X157284247Y-96911142D01*
X157331866Y-96815904D01*
X157331866Y-96577809D01*
X157284247Y-96482571D01*
X157236628Y-96434952D01*
X157141390Y-96387333D01*
X156950914Y-96387333D01*
X156855676Y-96434952D01*
X156808057Y-96482571D01*
X156760438Y-96577809D01*
X137906093Y-104928822D02*
X137858474Y-104976441D01*
X137715617Y-105024060D01*
X137620379Y-105024060D01*
X137477521Y-104976441D01*
X137382283Y-104881203D01*
X137334664Y-104785965D01*
X137287045Y-104595489D01*
X137287045Y-104452632D01*
X137334664Y-104262156D01*
X137382283Y-104166918D01*
X137477521Y-104071680D01*
X137620379Y-104024060D01*
X137715617Y-104024060D01*
X137858474Y-104071680D01*
X137906093Y-104119299D01*
X138763236Y-104357394D02*
X138763236Y-105024060D01*
X138525140Y-103976441D02*
X138287045Y-104690727D01*
X138906093Y-104690727D01*
X136971807Y-97243108D02*
X137733712Y-97243108D01*
X137352760Y-97624060D02*
X137352760Y-96862156D01*
X138378533Y-95181142D02*
X138330914Y-95228761D01*
X138188057Y-95276380D01*
X138092819Y-95276380D01*
X137949961Y-95228761D01*
X137854723Y-95133523D01*
X137807104Y-95038285D01*
X137759485Y-94847809D01*
X137759485Y-94704952D01*
X137807104Y-94514476D01*
X137854723Y-94419238D01*
X137949961Y-94324000D01*
X138092819Y-94276380D01*
X138188057Y-94276380D01*
X138330914Y-94324000D01*
X138378533Y-94371619D01*
X138711866Y-94276380D02*
X139330914Y-94276380D01*
X138997580Y-94657333D01*
X139140438Y-94657333D01*
X139235676Y-94704952D01*
X139283295Y-94752571D01*
X139330914Y-94847809D01*
X139330914Y-95085904D01*
X139283295Y-95181142D01*
X139235676Y-95228761D01*
X139140438Y-95276380D01*
X138854723Y-95276380D01*
X138759485Y-95228761D01*
X138711866Y-95181142D01*
X136944247Y-87495428D02*
X137706152Y-87495428D01*
X137325200Y-87876380D02*
X137325200Y-87114476D01*
X121052533Y-120277142D02*
X121004914Y-120324761D01*
X120862057Y-120372380D01*
X120766819Y-120372380D01*
X120623961Y-120324761D01*
X120528723Y-120229523D01*
X120481104Y-120134285D01*
X120433485Y-119943809D01*
X120433485Y-119800952D01*
X120481104Y-119610476D01*
X120528723Y-119515238D01*
X120623961Y-119420000D01*
X120766819Y-119372380D01*
X120862057Y-119372380D01*
X121004914Y-119420000D01*
X121052533Y-119467619D01*
X121433485Y-119467619D02*
X121481104Y-119420000D01*
X121576342Y-119372380D01*
X121814438Y-119372380D01*
X121909676Y-119420000D01*
X121957295Y-119467619D01*
X122004914Y-119562857D01*
X122004914Y-119658095D01*
X121957295Y-119800952D01*
X121385866Y-120372380D01*
X122004914Y-120372380D01*
X115052533Y-120277142D02*
X115004914Y-120324761D01*
X114862057Y-120372380D01*
X114766819Y-120372380D01*
X114623961Y-120324761D01*
X114528723Y-120229523D01*
X114481104Y-120134285D01*
X114433485Y-119943809D01*
X114433485Y-119800952D01*
X114481104Y-119610476D01*
X114528723Y-119515238D01*
X114623961Y-119420000D01*
X114766819Y-119372380D01*
X114862057Y-119372380D01*
X115004914Y-119420000D01*
X115052533Y-119467619D01*
X116004914Y-120372380D02*
X115433485Y-120372380D01*
X115719200Y-120372380D02*
X115719200Y-119372380D01*
X115623961Y-119515238D01*
X115528723Y-119610476D01*
X115433485Y-119658095D01*
M02*
